<?xml version="1.0" encoding="utf-8"?>
<!-- Generator: Adobe Illustrator 16.0.0, SVG Export Plug-In . SVG Version: 6.00 Build 0)  -->
<!DOCTYPE svg PUBLIC "-//W3C//DTD SVG 1.1//EN" "http://www.w3.org/Graphics/SVG/1.1/DTD/svg11.dtd">
<svg version="1.1" id="Capa_1" xmlns="http://www.w3.org/2000/svg" xmlns:xlink="http://www.w3.org/1999/xlink" x="0px" y="0px"
	 width="120px" height="120px" viewBox="0 0 120 120" enable-background="new 0 0 120 120" xml:space="preserve">
<g>
	<g>
		<path fill="#BEBEC0" d="M60.791,53.256c0.692,1.662,1.247,3.324,1.732,4.919c1.592-1.248,9.63-7.621,15.936-13.649
			c-2.012-3.325-4.366-6.375-6.998-9.006c-4.021,1.454-10.049,4.365-16.905,8.105C57.119,46.189,59.268,49.376,60.791,53.256"/>
		<path fill="#BEBEC0" d="M80.397,48.06c-0.069-0.208-0.208-0.346-0.275-0.555c-7.554,6.374-15.452,11.778-16.906,12.817
			c0.07,0.278,0.138,0.553,0.276,0.9c2.426-1.731,4.852-3.533,7.344-5.473C74.025,53.187,77.279,50.623,80.397,48.06"/>
		<path fill="#BEBEC0" d="M78.248,58.799c-4.295,2.839-8.867,5.611-13.44,8.243c2.844,15.729-2.355,26.259-12.677,35.542
			c0,0,19.885-1.453,29.79-24.595c3.26-7.622,3.26-15.38,1.318-22.586C81.576,56.581,79.911,57.69,78.248,58.799"/>
		<path fill="#BEBEC0" d="M51.715,41.063c5.82-3.326,11.431-6.305,16.418-8.66c-3.878-3.257-8.034-5.542-11.914-6.651
			c-14.412-3.88-26.537-0.624-36.928,7.136C19.292,32.956,38.69,30.878,51.715,41.063"/>
		<path fill="#ED6D22" d="M0.377,74.803c0,0,54.594-34.78,71.151-40.184c16.488-5.403,18.083-0.347,10.949,7.275
			C75.341,49.515,62.452,59.56,62.452,59.56s21.201-14.341,28.891-24.802c7.624-10.462,5.404-12.68-15.45-4.504
			C54.972,38.43,8.551,68.359,0.377,74.803"/>
		<path fill="#ED6D22" d="M13.956,90.806c0,0,28.891-11.983,57.02-33.947c28.196-21.894,36.512-31.316,27.991-34.434
			c0,0,14.615-7.482,19.813-4.156c5.197,3.325-14.273,21.893-41.572,39.976C49.914,76.396,13.956,90.806,13.956,90.806"/>
		<path fill="#ED6D22" d="M11.947,94.27c0,2.565-2.079,4.711-4.711,4.711c-2.563,0-4.711-2.078-4.711-4.711
			c0-2.563,2.078-4.712,4.711-4.712C9.8,89.558,11.947,91.707,11.947,94.27"/>
	</g>
</g>
</svg>
