<?xml version="1.0" encoding="utf-8"?>
<!-- Generator: Adobe Illustrator 16.0.0, SVG Export Plug-In . SVG Version: 6.00 Build 0)  -->
<!DOCTYPE svg PUBLIC "-//W3C//DTD SVG 1.1//EN" "http://www.w3.org/Graphics/SVG/1.1/DTD/svg11.dtd">
<svg version="1.1" id="Layer_1" xmlns="http://www.w3.org/2000/svg" xmlns:xlink="http://www.w3.org/1999/xlink" x="0px" y="0px"
	 width="3000px" height="1000px" viewBox="0 0 3000 1000" enable-background="new 0 0 3000 1000" xml:space="preserve">
<g>
	<path fill="#BEBEC0" d="M414.095,457.553c4.36,10.465,7.848,20.929,10.901,30.958c10.028-7.849,60.607-47.963,100.285-85.896
		c-12.645-20.93-27.469-40.115-44.038-56.684c-25.289,9.156-63.224,27.469-106.39,51.015
		C390.985,413.078,404.503,433.136,414.095,457.553"/>
	<path fill="#BEBEC0" d="M537.49,424.851c-0.436-1.308-1.308-2.18-1.744-3.487c-47.526,40.114-97.234,74.123-106.39,80.665
		c0.436,1.743,0.871,3.487,1.744,5.667c15.26-10.9,30.521-22.236,46.218-34.445C497.376,457.116,517.87,440.984,537.49,424.851"/>
	<path fill="#BEBEC0" d="M523.974,492.435c-27.034,17.878-55.812,35.318-84.588,51.888c17.876,98.978-14.826,165.254-79.793,223.681
		c0,0,125.139-9.156,187.492-154.789c20.493-47.963,20.493-96.797,8.284-142.144C544.903,478.481,534.438,485.459,523.974,492.435"
		/>
	<path fill="#BEBEC0" d="M356.976,380.813c36.626-20.93,71.944-39.679,103.338-54.503c-24.417-20.494-50.58-34.883-74.997-41.859
		c-90.694-24.417-166.998-3.925-232.402,44.911C152.916,329.797,275.002,316.717,356.976,380.813"/>
	<path fill="#ED6D22" d="M33.88,593.157c0,0,343.589-218.886,447.798-252.896c103.774-34.01,113.803-2.181,68.893,45.783
		C505.661,434.008,424.56,497.23,424.56,497.23s133.424-90.257,181.823-156.097c47.962-65.84,34.01-79.793-97.234-28.342
		C377.469,364.244,85.332,552.606,33.88,593.157"/>
	<path fill="#ED6D22" d="M119.342,693.879c0,0,181.823-75.433,358.849-213.652c177.462-137.785,229.786-197.084,176.154-216.705
		c0,0,92.001-47.092,124.704-26.162c32.702,20.93-89.822,137.784-261.616,251.587C345.639,603.187,119.342,693.879,119.342,693.879"
		/>
	<path fill="#ED6D22" d="M106.697,715.681c0,16.133-13.081,29.649-29.65,29.649c-16.133,0-29.65-13.081-29.65-29.649
		c0-16.134,13.081-29.649,29.65-29.649C93.18,686.031,106.697,699.547,106.697,715.681"/>
</g>
<g>
	<path fill="#808287" d="M869.41,455.426c3.728,0,5.858,1.065,6.923,3.195c1.065,2.129,1.597,5.325,1.597,9.585
		c0,4.26-0.532,7.455-1.597,9.052c-1.065,2.13-3.195,3.196-6.923,3.196h-18.638c-11.716,0-20.235,1.597-24.496,4.792
		c-4.793,3.195-6.923,7.455-6.923,13.313v86.268c0,4.793-1.065,7.988-3.728,9.585c-2.662,1.598-6.39,2.13-11.715,2.13
		s-9.053-0.532-11.183-2.13c-2.663-1.597-3.728-4.792-3.728-9.585v-86.8c0-14.378,5.325-25.028,15.976-31.952
		c10.65-6.922,26.093-10.649,46.329-10.649H869.41z"/>
	<path fill="#808287" d="M925.324,594.945c-45.265,0-68.162-14.379-68.162-43.135v-13.313c0-28.756,22.897-43.134,68.162-43.134
		h102.775l0,0c0-4.792-3.195-8.52-9.053-11.183c-5.857-2.662-15.975-4.26-29.288-4.26h-22.366c-3.728,0-5.858-1.065-7.456-3.195
		c-1.065-2.13-1.598-5.326-1.598-9.053c0-4.26,0.533-7.454,1.598-9.584c1.065-2.131,3.728-3.196,7.456-3.196h23.431
		c45.264,0,68.161,14.378,68.161,43.134v53.784c0,28.756-22.897,43.135-68.161,43.135H925.324L925.324,594.945z M989.758,569.917
		c13.313,0,23.431-1.598,29.288-5.325c5.858-3.729,9.053-7.988,9.053-12.781v-31.95h-101.71c-13.312,0-23.43,1.597-29.288,5.325
		c-5.858,3.195-9.053,7.988-9.053,12.78v13.845c0,4.793,3.195,9.053,9.053,12.781c5.858,3.728,15.976,5.325,29.288,5.325H989.758z"
		/>
	<path fill="#808287" d="M1240.04,426.67c0-4.792,1.065-7.988,3.728-9.585s6.391-2.13,11.715-2.13c5.325,0,9.053,0.533,11.183,2.13
		c2.663,1.598,3.728,4.793,3.728,9.585v125.14c0,28.756-22.898,43.136-68.162,43.136h-56.979c-45.264,0-68.163-14.38-68.163-43.136
		v-53.783c0-28.756,22.898-43.134,68.163-43.134h95.319V426.67H1240.04z M1146.317,480.455c-13.313,0-23.431,1.597-29.289,5.325
		c-5.856,3.195-9.052,7.987-9.052,12.78v53.785c0,4.791,3.196,9.052,9.052,12.78c5.858,3.727,15.976,5.324,29.289,5.324h55.914
		c13.313,0,23.43-1.598,29.288-5.324c5.858-3.729,9.053-7.989,9.053-12.78v-71.358h-94.255V480.455z"/>
	<path fill="#808287" d="M1288.499,430.398c0-5.325,1.598-9.052,4.26-11.715c3.194-2.663,7.987-3.728,14.377-3.728
		c6.922,0,11.715,1.065,14.377,3.728c3.196,2.663,4.261,6.39,4.261,11.715c0,5.325-1.598,9.053-4.261,11.715
		c-3.195,2.662-7.987,3.727-14.377,3.727c-6.922,0-11.715-1.065-14.377-3.727C1290.096,439.451,1288.499,435.723,1288.499,430.398
		 M1323.112,584.295c0,4.792-1.065,7.986-3.728,9.586c-2.663,1.597-6.39,2.129-11.716,2.129c-5.325,0-9.052-0.532-11.183-2.129
		c-2.663-1.6-3.727-4.794-3.727-9.586V467.674c0-4.793,1.064-7.988,3.727-9.585c2.663-1.598,6.391-2.131,11.183-2.131
		c5.326,0,9.053,0.533,11.716,2.131c2.663,1.597,3.728,4.792,3.728,9.585V584.295z"/>
	<path fill="#808287" d="M1343.349,498.56c0-28.756,22.897-43.133,68.161-43.133h52.187c45.264,0,68.161,14.377,68.161,43.133
		v53.785c0,28.755-22.897,43.133-68.161,43.133h-52.187c-45.264,0-68.161-14.378-68.161-43.133V498.56z M1501.505,498.56
		c0-5.325-3.196-9.585-9.053-12.78c-5.858-3.195-15.976-5.325-29.289-5.325h-50.589c-13.313,0-23.43,1.597-29.288,5.325
		c-5.858,3.195-9.053,7.987-9.053,12.78v53.785c0,4.792,3.195,9.052,9.053,12.78c5.858,3.727,15.976,5.324,29.288,5.324h50.589
		c13.313,0,23.431-1.598,29.289-5.324c5.857-3.729,9.053-7.988,9.053-12.78V498.56z"/>
	<path fill="#473F45" d="M1729.421,454.361c5.325,0,9.053,0.533,11.183,2.13c2.662,1.598,3.728,4.793,3.728,9.584v85.735
		c0,28.756-22.898,43.136-68.162,43.136h-56.979c-45.264,0-68.163-14.38-68.163-43.136v-85.735c0-4.792,1.065-7.987,3.729-9.584
		c2.662-1.598,6.391-2.13,11.715-2.13c5.325,0,9.054,0.533,11.184,2.13c2.662,1.598,3.727,4.793,3.727,9.584v85.735
		c0,5.326,3.196,9.586,9.054,12.781c5.857,3.194,15.976,5.325,29.287,5.325h55.382c13.313,0,23.432-1.598,29.289-5.325
		c5.857-3.195,9.053-7.988,9.053-12.781v-85.735c0-4.792,1.065-7.987,3.728-9.584
		C1720.367,455.426,1724.628,454.361,1729.421,454.361"/>
	<path fill="#473F45" d="M1780.542,596.01c-5.325,0-9.052-0.532-11.183-2.129c-2.662-1.6-3.728-4.794-3.728-9.586V498.56
		c0-28.756,22.897-43.133,68.161-43.133h52.188c45.264,0,68.161,14.377,68.161,43.133v85.735c0,4.792-1.065,7.986-3.728,9.586
		c-2.663,1.597-6.39,2.129-11.715,2.129s-9.053-0.532-11.184-2.129c-2.663-1.6-3.728-4.794-3.728-9.586V498.56
		c0-5.325-3.194-9.586-9.053-12.78c-5.857-3.195-15.975-5.325-29.288-5.325h-50.59c-13.312,0-23.43,1.597-29.287,5.325
		c-5.858,3.195-9.053,7.987-9.053,12.78v85.735c0,4.792-1.065,7.986-3.727,9.586C1789.595,594.945,1785.867,596.01,1780.542,596.01"
		/>
	<path fill="#473F45" d="M1971.716,430.398c0-5.325,1.596-9.052,4.26-11.715c3.195-2.663,7.986-3.728,14.376-3.728
		c6.925,0,11.717,1.065,14.379,3.728c3.195,2.663,4.26,6.39,4.26,11.715c0,5.325-1.597,9.053-4.26,11.715
		c-3.195,2.662-7.988,3.727-14.379,3.727c-6.923,0-11.715-1.065-14.376-3.727C1973.312,439.451,1971.716,435.723,1971.716,430.398
		 M2005.795,584.295c0,4.792-1.064,7.986-3.727,9.586c-2.662,1.597-6.392,2.129-11.717,2.129c-5.324,0-9.052-0.532-11.181-2.129
		c-2.664-1.6-3.729-4.794-3.729-9.586V467.674c0-4.793,1.065-7.988,3.729-9.585c2.662-1.598,6.389-2.131,11.181-2.131
		c5.325,0,9.055,0.533,11.717,2.131c2.662,1.597,3.727,4.792,3.727,9.585V584.295z"/>
	<path fill="#473F45" d="M2133.6,596.01c-4.261,0-7.455-0.532-10.118-1.598c-2.662-1.065-4.793-2.662-6.392-4.792l-94.254-120.349
		c-1.598-1.597-2.131-3.196-2.131-5.325c0-2.662,1.6-4.792,5.325-6.923c3.729-1.597,7.989-2.663,12.781-2.663
		c2.663,0,5.325,0.532,8.521,1.065c2.662,0.532,5.325,2.129,6.923,4.793l80.409,103.84l80.942-103.84
		c1.597-2.13,3.728-3.728,6.391-4.261c2.661-0.532,5.324-1.065,7.987-1.065c4.261,0,8.521,1.065,11.716,2.663
		c3.195,1.598,5.324,3.728,5.324,6.923c0,1.597-0.532,3.196-2.129,5.325l-93.723,120.349c-1.599,2.129-3.728,3.729-6.391,4.793
		C2141.056,595.478,2137.859,596.01,2133.6,596.01"/>
	<path fill="#473F45" d="M2280.041,539.563v12.782c0,4.791,3.194,9.052,9.053,12.78c5.857,3.727,15.976,5.324,29.287,5.324h27.691
		c3.728,0,5.858,1.065,6.924,3.196c1.064,2.129,1.596,5.324,1.596,9.052s-0.531,7.455-1.596,9.584
		c-1.066,2.131-3.196,3.196-6.924,3.196h-28.756c-45.264,0-68.161-14.378-68.161-43.133V498.56
		c0-28.756,22.897-43.133,68.161-43.133h55.383c23.962,0,41.535,3.728,52.186,10.649c10.65,6.923,15.975,17.573,15.975,32.484
		v28.223c0,4.793-1.064,7.988-2.662,10.118c-1.598,1.598-5.857,2.662-11.715,2.662H2280.041L2280.041,539.563z M2280.041,515.067
		h130.465V498.56c0-5.858-3.195-10.118-9.053-13.313c-5.857-3.195-15.976-4.792-29.288-4.792h-53.784
		c-13.312,0-23.43,1.597-29.287,5.325c-5.858,3.195-9.053,7.987-9.053,12.78V515.067L2280.041,515.067z"/>
	<path fill="#473F45" d="M2539.375,455.426c3.728,0,5.857,1.065,6.922,3.195c1.066,2.129,1.599,5.325,1.599,9.585
		c0,4.26-0.532,7.455-1.599,9.052c-1.064,2.13-3.194,3.196-6.922,3.196h-18.639c-11.716,0-20.235,1.597-24.495,4.792
		c-4.793,3.195-6.922,7.455-6.922,13.313v86.268c0,4.793-1.065,7.988-3.729,9.585c-2.663,1.598-6.391,2.13-11.716,2.13
		c-5.324,0-9.053-0.532-11.182-2.13c-2.663-1.597-3.729-4.792-3.729-9.585v-86.8c0-14.378,5.326-25.028,15.976-31.952
		c10.65-6.922,26.094-10.649,46.329-10.649H2539.375z"/>
	<path fill="#473F45" d="M2558.546,492.702c0-11.715,4.793-20.768,14.377-27.158c9.586-6.39,23.964-10.118,42.603-10.118h33.016
		c3.729,0,5.856,1.065,7.455,3.195c1.064,2.129,1.598,5.325,1.598,9.585c0,4.26-0.533,7.455-1.598,9.052
		c-1.065,2.13-3.729,3.196-7.455,3.196h-33.016c-9.055,0-15.976,1.065-20.236,3.194c-4.26,2.13-6.39,5.326-6.39,9.053v6.391
		c0,3.729,2.13,6.923,6.923,9.053c4.259,2.129,11.714,3.194,21.3,3.194h53.251c22.367,0,38.342,3.195,48.459,10.117
		c10.118,6.391,14.91,15.977,14.91,27.691v7.988c0,5.857-1.064,11.183-3.727,15.975c-2.663,4.793-6.391,8.521-12.249,11.716
		c-5.325,3.194-12.247,5.858-21.3,7.454c-8.52,1.6-19.171,2.664-30.886,2.664h-97.45c-3.729,0-5.858-1.064-7.456-3.195
		c-1.065-2.13-1.597-5.325-1.597-9.586c0-4.26,0.533-7.454,1.597-9.053c1.065-2.131,3.728-3.194,7.456-3.194h101.709
		c6.392,0,11.717-0.532,15.977-1.065c4.259-0.532,7.455-1.598,10.118-2.662c2.661-1.064,4.259-2.13,5.326-3.728
		c1.063-1.599,1.597-3.195,1.597-5.326v-9.052c0-2.131-0.533-3.729-1.597-5.325c-1.067-1.598-2.665-2.663-4.794-3.728
		c-2.131-1.065-5.857-2.13-9.585-2.663c-4.26-0.532-9.054-1.065-15.442-1.065h-53.785c-19.17,0-34.081-3.194-43.665-9.585
		c-9.587-6.391-14.911-15.443-14.911-26.625v-6.391H2558.546z"/>
	<path fill="#473F45" d="M2815.75,594.945c-45.264,0-68.161-14.379-68.161-43.135v-13.313c0-28.756,22.897-43.134,68.161-43.134
		h102.775l0,0c0-4.792-3.195-8.52-9.053-11.183c-5.857-2.662-15.976-4.26-29.288-4.26h-22.365c-3.729,0-5.859-1.065-7.455-3.195
		c-1.066-2.13-1.599-5.326-1.599-9.053c0-4.26,0.532-7.454,1.599-9.584c1.064-2.131,3.726-3.196,7.455-3.196h23.431
		c45.264,0,68.161,14.378,68.161,43.134v53.784c0,28.756-22.897,43.135-68.161,43.135H2815.75L2815.75,594.945z M2880.185,569.917
		c13.313,0,23.431-1.598,29.288-5.325c5.857-3.729,9.053-7.988,9.053-12.781v-31.95h-101.711c-13.313,0-23.431,1.597-29.288,5.325
		c-5.856,3.195-9.053,7.988-9.053,12.78v13.845c0,4.793,3.196,9.053,9.053,12.781c5.857,3.728,15.976,5.325,29.288,5.325H2880.185z"
		/>
	<path fill="#473F45" d="M3000,584.295c0,4.792-1.065,7.986-3.728,9.586c-2.663,1.597-6.391,2.129-11.716,2.129
		s-9.053-0.532-11.183-2.129c-2.663-1.6-3.728-4.794-3.728-9.586V426.67c0-4.792,1.064-7.988,3.728-9.586
		c2.663-1.597,6.391-2.13,11.183-2.13c5.325,0,9.053,0.533,11.716,2.13c2.662,1.598,3.728,4.793,3.728,9.586V584.295z"/>
</g>
</svg>
