<?xml version="1.0" encoding="utf-8"?>
<!-- Generator: Adobe Illustrator 21.0.2, SVG Export Plug-In . SVG Version: 6.00 Build 0)  -->
<svg version="1.1" id="Capa_1" xmlns="http://www.w3.org/2000/svg" xmlns:xlink="http://www.w3.org/1999/xlink" x="0px" y="0px"
	 viewBox="0 0 415.3 178.4" style="enable-background:new 0 0 415.3 178.4;" xml:space="preserve">
<style type="text/css">
	.st0{fill:#808287;}
	.st1{fill:#473F45;}
	.st2{fill:#BEBEC0;}
	.st3{fill:#ED6D22;}
</style>
<g>
	<g>
		<path class="st0" d="M15.2,152c0.7,0,1.1,0.2,1.3,0.6c0.2,0.4,0.3,1,0.3,1.8c0,0.8-0.1,1.4-0.3,1.7c-0.2,0.4-0.6,0.6-1.3,0.6h-3.5
			c-2.2,0-3.8,0.3-4.6,0.9c-0.9,0.6-1.3,1.4-1.3,2.5v16.2c0,0.9-0.2,1.5-0.7,1.8c-0.5,0.3-1.2,0.4-2.2,0.4s-1.7-0.1-2.1-0.4
			c-0.5-0.3-0.7-0.9-0.7-1.8V160c0-2.7,1-4.7,3-6c2-1.3,4.9-2,8.7-2H15.2z"/>
		<path class="st0" d="M25.7,178.2c-8.5,0-12.8-2.7-12.8-8.1v-2.5c0-5.4,4.3-8.1,12.8-8.1H45v0c0-0.9-0.6-1.6-1.7-2.1
			c-1.1-0.5-3-0.8-5.5-0.8h-4.2c-0.7,0-1.1-0.2-1.4-0.6c-0.2-0.4-0.3-1-0.3-1.7c0-0.8,0.1-1.4,0.3-1.8c0.2-0.4,0.7-0.6,1.4-0.6H38
			c8.5,0,12.8,2.7,12.8,8.1v10.1c0,5.4-4.3,8.1-12.8,8.1H25.7z M37.8,173.5c2.5,0,4.4-0.3,5.5-1c1.1-0.7,1.7-1.5,1.7-2.4v-6H25.9
			c-2.5,0-4.4,0.3-5.5,1c-1.1,0.6-1.7,1.5-1.7,2.4v2.6c0,0.9,0.6,1.7,1.7,2.4c1.1,0.7,3,1,5.5,1H37.8z"/>
		<path class="st0" d="M84.8,146.6c0-0.9,0.2-1.5,0.7-1.8c0.5-0.3,1.2-0.4,2.2-0.4c1,0,1.7,0.1,2.1,0.4c0.5,0.3,0.7,0.9,0.7,1.8
			v23.5c0,5.4-4.3,8.1-12.8,8.1H67c-8.5,0-12.8-2.7-12.8-8.1v-10.1c0-5.4,4.3-8.1,12.8-8.1h17.9V146.6z M67.2,156.7
			c-2.5,0-4.4,0.3-5.5,1c-1.1,0.6-1.7,1.5-1.7,2.4v10.1c0,0.9,0.6,1.7,1.7,2.4c1.1,0.7,3,1,5.5,1h10.5c2.5,0,4.4-0.3,5.5-1
			c1.1-0.7,1.7-1.5,1.7-2.4v-13.4H67.2z"/>
		<path class="st0" d="M93.9,147.3c0-1,0.3-1.7,0.8-2.2c0.6-0.5,1.5-0.7,2.7-0.7c1.3,0,2.2,0.2,2.7,0.7c0.6,0.5,0.8,1.2,0.8,2.2
			c0,1-0.3,1.7-0.8,2.2c-0.6,0.5-1.5,0.7-2.7,0.7c-1.3,0-2.2-0.2-2.7-0.7C94.2,149,93.9,148.3,93.9,147.3 M100.4,176.2
			c0,0.9-0.2,1.5-0.7,1.8c-0.5,0.3-1.2,0.4-2.2,0.4c-1,0-1.7-0.1-2.1-0.4c-0.5-0.3-0.7-0.9-0.7-1.8v-21.9c0-0.9,0.2-1.5,0.7-1.8
			c0.5-0.3,1.2-0.4,2.1-0.4c1,0,1.7,0.1,2.2,0.4c0.5,0.3,0.7,0.9,0.7,1.8V176.2z"/>
		<path class="st0" d="M104.2,160.1c0-5.4,4.3-8.1,12.8-8.1h9.8c8.5,0,12.8,2.7,12.8,8.1v10.1c0,5.4-4.3,8.1-12.8,8.1H117
			c-8.5,0-12.8-2.7-12.8-8.1V160.1z M133.9,160.1c0-1-0.6-1.8-1.7-2.4c-1.1-0.6-3-1-5.5-1h-9.5c-2.5,0-4.4,0.3-5.5,1
			c-1.1,0.6-1.7,1.5-1.7,2.4v10.1c0,0.9,0.6,1.7,1.7,2.4c1.1,0.7,3,1,5.5,1h9.5c2.5,0,4.4-0.3,5.5-1c1.1-0.7,1.7-1.5,1.7-2.4V160.1z
			"/>
		<path class="st1" d="M176.7,151.8c1,0,1.7,0.1,2.1,0.4c0.5,0.3,0.7,0.9,0.7,1.8v16.1c0,5.4-4.3,8.1-12.8,8.1H156
			c-8.5,0-12.8-2.7-12.8-8.1V154c0-0.9,0.2-1.5,0.7-1.8c0.5-0.3,1.2-0.4,2.2-0.4c1,0,1.7,0.1,2.1,0.4c0.5,0.3,0.7,0.9,0.7,1.8v16.1
			c0,1,0.6,1.8,1.7,2.4c1.1,0.6,3,1,5.5,1h10.4c2.5,0,4.4-0.3,5.5-1c1.1-0.6,1.7-1.5,1.7-2.4V154c0-0.9,0.2-1.5,0.7-1.8
			C175,152,175.8,151.8,176.7,151.8"/>
		<path class="st1" d="M186.3,178.4c-1,0-1.7-0.1-2.1-0.4c-0.5-0.3-0.7-0.9-0.7-1.8v-16.1c0-5.4,4.3-8.1,12.8-8.1h9.8
			c8.5,0,12.8,2.7,12.8,8.1v16.1c0,0.9-0.2,1.5-0.7,1.8c-0.5,0.3-1.2,0.4-2.2,0.4c-1,0-1.7-0.1-2.1-0.4c-0.5-0.3-0.7-0.9-0.7-1.8
			v-16.1c0-1-0.6-1.8-1.7-2.4c-1.1-0.6-3-1-5.5-1h-9.5c-2.5,0-4.4,0.3-5.5,1c-1.1,0.6-1.7,1.5-1.7,2.4v16.1c0,0.9-0.2,1.5-0.7,1.8
			C188,178.2,187.3,178.4,186.3,178.4"/>
		<path class="st1" d="M222.2,147.3c0-1,0.3-1.7,0.8-2.2c0.6-0.5,1.5-0.7,2.7-0.7c1.3,0,2.2,0.2,2.7,0.7c0.6,0.5,0.8,1.2,0.8,2.2
			c0,1-0.3,1.7-0.8,2.2c-0.6,0.5-1.5,0.7-2.7,0.7c-1.3,0-2.2-0.2-2.7-0.7C222.5,149,222.2,148.3,222.2,147.3 M228.6,176.2
			c0,0.9-0.2,1.5-0.7,1.8c-0.5,0.3-1.2,0.4-2.2,0.4c-1,0-1.7-0.1-2.1-0.4c-0.5-0.3-0.7-0.9-0.7-1.8v-21.9c0-0.9,0.2-1.5,0.7-1.8
			c0.5-0.3,1.2-0.4,2.1-0.4c1,0,1.7,0.1,2.2,0.4c0.5,0.3,0.7,0.9,0.7,1.8V176.2z"/>
		<path class="st1" d="M252.6,178.4c-0.8,0-1.4-0.1-1.9-0.3c-0.5-0.2-0.9-0.5-1.2-0.9l-17.7-22.6c-0.3-0.3-0.4-0.6-0.4-1
			c0-0.5,0.3-0.9,1-1.3c0.7-0.3,1.5-0.5,2.4-0.5c0.5,0,1,0.1,1.6,0.2c0.5,0.1,1,0.4,1.3,0.9l15.1,19.5l15.2-19.5
			c0.3-0.4,0.7-0.7,1.2-0.8c0.5-0.1,1-0.2,1.5-0.2c0.8,0,1.6,0.2,2.2,0.5c0.6,0.3,1,0.7,1,1.3c0,0.3-0.1,0.6-0.4,1l-17.6,22.6
			c-0.3,0.4-0.7,0.7-1.2,0.9C254,178.3,253.4,178.4,252.6,178.4"/>
		<path class="st1" d="M280.1,167.8v2.4c0,0.9,0.6,1.7,1.7,2.4c1.1,0.7,3,1,5.5,1h5.2c0.7,0,1.1,0.2,1.3,0.6c0.2,0.4,0.3,1,0.3,1.7
			s-0.1,1.4-0.3,1.8c-0.2,0.4-0.6,0.6-1.3,0.6h-5.4c-8.5,0-12.8-2.7-12.8-8.1v-10.1c0-5.4,4.3-8.1,12.8-8.1h10.4
			c4.5,0,7.8,0.7,9.8,2c2,1.3,3,3.3,3,6.1v5.3c0,0.9-0.2,1.5-0.5,1.9c-0.3,0.3-1.1,0.5-2.2,0.5H280.1z M280.1,163.2h24.5v-3.1
			c0-1.1-0.6-1.9-1.7-2.5c-1.1-0.6-3-0.9-5.5-0.9h-10.1c-2.5,0-4.4,0.3-5.5,1c-1.1,0.6-1.7,1.5-1.7,2.4V163.2z"/>
		<path class="st1" d="M328.8,152c0.7,0,1.1,0.2,1.3,0.6s0.3,1,0.3,1.8c0,0.8-0.1,1.4-0.3,1.7c-0.2,0.4-0.6,0.6-1.3,0.6h-3.5
			c-2.2,0-3.8,0.3-4.6,0.9c-0.9,0.6-1.3,1.4-1.3,2.5v16.2c0,0.9-0.2,1.5-0.7,1.8c-0.5,0.3-1.2,0.4-2.2,0.4c-1,0-1.7-0.1-2.1-0.4
			c-0.5-0.3-0.7-0.9-0.7-1.8V160c0-2.7,1-4.7,3-6c2-1.3,4.9-2,8.7-2H328.8z"/>
		<path class="st1" d="M332.4,159c0-2.2,0.9-3.9,2.7-5.1c1.8-1.2,4.5-1.9,8-1.9h6.2c0.7,0,1.1,0.2,1.4,0.6c0.2,0.4,0.3,1,0.3,1.8
			c0,0.8-0.1,1.4-0.3,1.7c-0.2,0.4-0.7,0.6-1.4,0.6h-6.2c-1.7,0-3,0.2-3.8,0.6c-0.8,0.4-1.2,1-1.2,1.7v1.2c0,0.7,0.4,1.3,1.3,1.7
			c0.8,0.4,2.2,0.6,4,0.6h10c4.2,0,7.2,0.6,9.1,1.9c1.9,1.2,2.8,3,2.8,5.2v1.5c0,1.1-0.2,2.1-0.7,3c-0.5,0.9-1.2,1.6-2.3,2.2
			c-1,0.6-2.3,1.1-4,1.4c-1.6,0.3-3.6,0.5-5.8,0.5h-18.3c-0.7,0-1.1-0.2-1.4-0.6c-0.2-0.4-0.3-1-0.3-1.8c0-0.8,0.1-1.4,0.3-1.7
			c0.2-0.4,0.7-0.6,1.4-0.6h19.1c1.2,0,2.2-0.1,3-0.2c0.8-0.1,1.4-0.3,1.9-0.5c0.5-0.2,0.8-0.4,1-0.7c0.2-0.3,0.3-0.6,0.3-1v-1.7
			c0-0.4-0.1-0.7-0.3-1c-0.2-0.3-0.5-0.5-0.9-0.7s-1.1-0.4-1.8-0.5c-0.8-0.1-1.7-0.2-2.9-0.2h-10.1c-3.6,0-6.4-0.6-8.2-1.8
			c-1.8-1.2-2.8-2.9-2.8-5V159z"/>
		<path class="st1" d="M380.7,178.2c-8.5,0-12.8-2.7-12.8-8.1v-2.5c0-5.4,4.3-8.1,12.8-8.1H400v0c0-0.9-0.6-1.6-1.7-2.1
			c-1.1-0.5-3-0.8-5.5-0.8h-4.2c-0.7,0-1.1-0.2-1.4-0.6c-0.2-0.4-0.3-1-0.3-1.7c0-0.8,0.1-1.4,0.3-1.8c0.2-0.4,0.7-0.6,1.4-0.6h4.4
			c8.5,0,12.8,2.7,12.8,8.1v10.1c0,5.4-4.3,8.1-12.8,8.1H380.7z M392.8,173.5c2.5,0,4.4-0.3,5.5-1c1.1-0.7,1.7-1.5,1.7-2.4v-6h-19.1
			c-2.5,0-4.4,0.3-5.5,1c-1.1,0.6-1.7,1.5-1.7,2.4v2.6c0,0.9,0.6,1.7,1.7,2.4c1.1,0.7,3,1,5.5,1H392.8z"/>
		<path class="st1" d="M415.3,176.2c0,0.9-0.2,1.5-0.7,1.8c-0.5,0.3-1.2,0.4-2.2,0.4c-1,0-1.7-0.1-2.1-0.4c-0.5-0.3-0.7-0.9-0.7-1.8
			v-29.6c0-0.9,0.2-1.5,0.7-1.8c0.5-0.3,1.2-0.4,2.1-0.4c1,0,1.7,0.1,2.2,0.4c0.5,0.3,0.7,0.9,0.7,1.8V176.2z"/>
	</g>
	<g>
		<path class="st2" d="M208.8,51.7c1,2.4,1.8,4.8,2.5,7.1c2.3-1.8,13.9-11,23-19.7c-2.9-4.8-6.3-9.2-10.1-13
			c-5.8,2.1-14.5,6.3-24.4,11.7C203.5,41.5,206.6,46.1,208.8,51.7"/>
		<path class="st2" d="M237.1,44.2c-0.1-0.3-0.3-0.5-0.4-0.8c-10.9,9.2-22.3,17-24.4,18.5c0.1,0.4,0.2,0.8,0.4,1.3
			c3.5-2.5,7-5.1,10.6-7.9C227.9,51.6,232.6,47.9,237.1,44.2"/>
		<path class="st2" d="M234,59.7c-6.2,4.1-12.8,8.1-19.4,11.9c4.1,22.7-3.4,37.9-18.3,51.3c0,0,28.7-2.1,43-35.5
			c4.7-11,4.7-22.2,1.9-32.6C238.8,56.5,236.4,58.1,234,59.7"/>
		<path class="st2" d="M195.7,34.1c8.4-4.8,16.5-9.1,23.7-12.5c-5.6-4.7-11.6-8-17.2-9.6c-20.8-5.6-38.3-0.9-53.3,10.3
			C148.9,22.4,176.9,19.4,195.7,34.1"/>
		<path class="st3" d="M121.6,82.8c0,0,78.8-50.2,102.7-58c23.8-7.8,26.1-0.5,15.8,10.5c-10.3,11-28.9,25.5-28.9,25.5
			s30.6-20.7,41.7-35.8c11-15.1,7.8-18.3-22.3-6.5C200.4,30.3,133.4,73.5,121.6,82.8"/>
		<path class="st3" d="M141.2,105.9c0,0,41.7-17.3,82.3-49c40.7-31.6,52.7-45.2,40.4-49.7c0,0,21.1-10.8,28.6-6
			c7.5,4.8-20.6,31.6-60,57.7C193.1,85.1,141.2,105.9,141.2,105.9"/>
		<path class="st3" d="M138.3,110.9c0,3.7-3,6.8-6.8,6.8c-3.7,0-6.8-3-6.8-6.8c0-3.7,3-6.8,6.8-6.8
			C135.2,104.1,138.3,107.2,138.3,110.9"/>
	</g>
</g>
</svg>
