<?xml version="1.0" encoding="utf-8"?>
<!-- Generator: Adobe Illustrator 23.0.0, SVG Export Plug-In . SVG Version: 6.00 Build 0)  -->
<svg version="1.1" id="Capa_1" xmlns="http://www.w3.org/2000/svg" xmlns:xlink="http://www.w3.org/1999/xlink" x="0px" y="0px"
	 viewBox="0 0 300 300" style="enable-background:new 0 0 300 300;" xml:space="preserve">
<style type="text/css">
	.st0{fill:#0040C9;}
	.st1{fill:#FFFFFF;}
	.st2{fill:#020202;}
	.st3{fill:#FCEC00;}
</style>
<g>
	<path class="st0" d="M179.49,276.61l1.12-4.91c0.41-1.78,0.8-3.48,1.18-5.18c0.18-0.78,0.35-1.56,0.53-2.34
		c0.26-1.18,0.54-2.39,0.82-3.6c-0.5,0.1-0.99,0.2-1.48,0.3c-0.53,0.11-1.06,0.21-1.59,0.32c-0.94,0.19-1.38,0.47-1.69,1.05
		c-0.34,0.63-0.76,1.15-1.16,1.66c-0.27,0.33-0.52,0.64-0.71,0.95c-0.21,0.33-0.86,1.35-2.01,1.32c-1.15-0.04-1.72-1.08-1.97-1.53
		c-0.41-0.75-0.87-1.47-1.28-2.13l-35.5,13.06l0.79-2.78c0.24-0.84,0.47-1.66,0.69-2.45c0.48-1.69,0.92-3.29,1.39-4.9
		c2.76-9.5,5.53-18.97,7.86-26.99c0.61-2.09,1.24-4.22,1.85-6.28c0.23-0.77,0.46-1.55,0.69-2.32c0.19-0.63,0.17-0.64-0.06-0.87
		c-8.3-7.92-16.55-15.88-24.28-23.36c-0.61-0.59-0.8-0.69-1.57-0.51c-6.56,1.54-11.94,2.15-16.92,1.94
		c-8.93-0.39-16-2.93-21.61-7.77c-3.93,4.74-8.55,8.79-13.72,12.03c-5.01,3.14-10.71,5.64-16.94,7.41
		c-8.6,2.45-16.32,3.29-23.58,2.57c-6.58-0.65-12.32-2.81-17.08-6.41c-5.05-3.82-8.69-9.06-10.82-15.58
		c-1.54-4.72-2.15-9.9-1.92-16.3c0.17-4.66,0.98-9.26,1.76-13.7c0.32-1.85,0.66-3.76,0.94-5.64c0.25-1.65,1.56-1.93,2.05-2.03
		l0.02,0c0.5-0.11,1.02-0.22,1.52-0.33c1.11-0.25,2.24-0.5,3.39-0.7c-2.56-6.37-3.34-13.56-2.45-22.56
		c0.45-4.59,1.34-9.19,2.19-13.63c0.11-0.59,0.23-1.19,0.34-1.78c1.33-6.98,3.41-13.23,6.35-19.09c3.43-6.85,7.93-12.76,13.37-17.56
		c5.33-4.71,11.7-8.47,18.92-11.19c9.01-3.39,17.48-4.9,25.88-4.62c8.88,0.29,15.96,2.83,21.63,7.77
		c6.41-7.83,14.68-13.71,24.6-17.46c10.31-3.9,19.86-5.41,29.18-4.6c6.41,0.56,12.29,2.66,17.02,6.08
		c5.24,3.8,9.02,9.07,11.23,15.68c1.62,4.84,2.26,10.18,1.97,16.32c-0.57,12.13-3.15,22.11-7.86,30.51
		c-1.67,2.98-1.99,5.39-1.1,8.34c0.04,0.15,0.09,0.28,0.12,0.41c0.11,0.38,0.24,0.8,0.33,1.05c0.3-0.01,0.8-0.06,1.29-0.11l0.3-0.03
		c5.1-0.53,9.19-0.06,12.83,1.48c2.96-6.69,5.99-13.49,8.92-20.07c1.94-4.36,3.95-8.86,5.92-13.3l-0.68,0.13
		c-4.33,0.82-8.8,1.67-13.17,2.61c-1.85,0.4-3.07,0.66-3.98-0.22c-0.9-0.88-0.67-2.11-0.32-3.98c0.6-3.17,1.13-6.42,1.64-9.56
		c0.28-1.71,0.57-3.48,0.87-5.22c0.42-2.47,0.86-4.97,1.29-7.4c0.38-2.18,0.78-4.43,1.16-6.65c0.89-5.19,1.74-10.24,2.45-14.5
		c0.28-1.7,0.57-3.43,0.84-5.11c0.32-1.93,0.64-3.92,0.98-5.89c0.11-0.68,0.57-1.88,2.35-2.23c3.26-0.64,6.57-1.31,9.77-1.95
		c3.27-0.66,6.65-1.33,9.98-1.99c3.16-0.62,6.38-1.25,9.49-1.85c3.87-0.75,7.87-1.52,11.8-2.31c3.12-0.62,6.3-1.28,9.37-1.92
		c3.15-0.65,6.41-1.33,9.63-1.97c3.14-0.63,6.34-1.24,9.44-1.83c3.14-0.6,6.39-1.22,9.58-1.86c3.82-0.76,7.69-1.56,11.44-2.34
		c2.47-0.51,5.03-1.04,7.54-1.55c1-0.2,2-0.37,3.06-0.55c0.5-0.08,1.01-0.17,1.55-0.27l2.72-0.48l-1.12,2.53
		c-0.54,1.22-1.07,2.43-1.6,3.62c-1.15,2.6-2.23,5.06-3.34,7.55l-5.51,12.39c-12.16,27.31-24.72,55.54-37.1,83.31
		c-8.73,19.6-15.41,34.55-21.65,48.46c-0.7,1.56-1.08,3.21-1.49,4.96c-0.11,0.45-0.21,0.91-0.33,1.37c2.66-0.52,5.35-1.01,7.96-1.5
		c0.71-0.13,1.43-0.26,2.14-0.4c0.79-0.15,1.6-0.29,2.38-0.43c1.2-0.22,2.45-0.44,3.66-0.68c0.36-0.07,1.33-0.26,2.02,0.47
		c0.69,0.72,0.46,1.67,0.34,2.13c-0.43,1.76-0.83,3.57-1.21,5.31c-0.14,0.64-0.29,1.3-0.43,1.96c1-0.2,1.79-0.21,2.43,0.41
		c0.84,0.81,0.6,1.92,0.3,3.33c-0.22,1.04-0.5,2.06-0.77,3.06c-0.11,0.41-0.23,0.83-0.33,1.25c3.52-0.74,7.09-1.42,10.56-2.07
		c1.9-0.36,3.87-0.73,5.8-1.11c3.97-0.78,8.19-1.61,12.33-2.52c1.49-0.33,2.29,0.44,2.77,0.89l0.01,0.01
		c0.68,0.64,1.35,1.29,2.03,1.93c2.09,2,4.26,4.06,6.43,6.03c1.48,1.34,1.33,2.8,1.1,3.77c-0.69,2.85-1.33,5.63-2.04,8.71
		c-0.01,0.06-0.03,0.12-0.04,0.19c-0.01,0.05-0.03,0.12-0.04,0.18c0.84,2.03,0.28,3.88-0.17,5.37c-0.21,0.71-0.41,1.37-0.46,2
		c-0.22,2.56-1.61,3.91-4.27,4.15c-1.1,0.1-2.2,0.36-3.37,0.63c-0.77,0.18-1.57,0.37-2.38,0.51c-0.31,0.05-0.34,0.07-0.45,0.41
		c-1.63,5.27-5.35,8.59-11.06,9.87c-3.07,0.69-6.19,1.31-9.22,1.91c-3.79,0.76-7.72,1.54-11.53,2.45c-1.71,0.41-3.45,0.73-5.13,1.04
		c-0.53,0.1-1.05,0.19-1.57,0.29c-0.07,0.01-0.12,0.03-0.15,0.04c0,0,0,0,0,0c-1.45,5.72-5.18,9.56-11.73,12.09
		c-9.74,3.76-19.59,7.72-29.11,11.55c-3.87,1.56-7.88,3.17-11.82,4.75c-0.15,0.06-0.28,0.1-0.46,0.15c-0.1,0.03-0.23,0.07-0.41,0.12
		L179.49,276.61z M184.42,257.37c0.88,0,1.27,0.41,1.43,0.56c0.51,0.52,0.65,1.25,0.43,2.18c-0.37,1.56-0.73,3.17-1.08,4.71
		c-0.18,0.78-0.35,1.57-0.53,2.35c-0.37,1.62-0.74,3.24-1.13,4.94c3.34-1.34,6.71-2.69,9.98-4.01c9.54-3.84,19.4-7.81,29.15-11.57
		c5.66-2.18,8.72-5.29,9.93-10.06c0.21-0.84,0.81-1.9,2.46-2.21c0.53-0.1,1.06-0.2,1.59-0.3c1.64-0.3,3.35-0.62,4.98-1.01
		c3.87-0.93,7.82-1.71,11.64-2.47c3.01-0.6,6.11-1.22,9.15-1.9c4.67-1.05,7.58-3.62,8.89-7.87c0.43-1.4,1.33-2.19,2.76-2.44
		c0.73-0.13,1.45-0.3,2.21-0.48c1.22-0.29,2.48-0.58,3.79-0.7c1.3-0.12,1.51-0.42,1.6-1.46c0.08-0.93,0.33-1.78,0.58-2.6
		c0.45-1.5,0.7-2.48,0.21-3.52c-0.33-0.71-0.16-1.42-0.04-1.89c0.01-0.05,0.02-0.09,0.03-0.14c0.71-3.09,1.36-5.88,2.05-8.74
		c0.13-0.55,0.07-0.64-0.22-0.9c-2.19-2-4.37-4.07-6.48-6.08c-0.67-0.64-1.35-1.28-2.02-1.93l-0.01-0.01
		c-0.05-0.04-0.1-0.1-0.15-0.14c-4.15,0.91-8.38,1.75-12.35,2.52c-1.94,0.38-3.91,0.75-5.82,1.11c-3.69,0.69-7.5,1.41-11.22,2.21
		c-0.48,0.1-1.75,0.37-2.57-0.48c-0.79-0.81-0.52-1.89-0.35-2.6c0.16-0.67,0.35-1.34,0.52-1.98c0.27-1,0.53-1.94,0.73-2.9
		c0-0.02,0.01-0.04,0.01-0.07c-0.06,0.02-0.12,0.03-0.18,0.04c-0.37,0.09-1.51,0.38-2.32-0.42c-0.81-0.79-0.55-1.91-0.46-2.33
		c0.22-0.98,0.44-1.98,0.66-2.94c0.3-1.35,0.6-2.74,0.93-4.13c-0.79,0.15-1.57,0.29-2.34,0.43c-0.77,0.14-1.58,0.28-2.36,0.43
		c-0.71,0.13-1.43,0.26-2.14,0.4c-3.01,0.56-6.13,1.13-9.18,1.74c-0.93,0.18-1.65,0.01-2.14-0.53c-0.33-0.36-0.66-1.02-0.36-2.09
		c0.24-0.84,0.43-1.67,0.64-2.56c0.42-1.81,0.86-3.68,1.68-5.49c6.24-13.91,12.91-28.85,21.65-48.45
		c12.37-27.77,24.94-56,37.1-83.31l5.51-12.39c1.11-2.49,2.19-4.95,3.34-7.54c0.16-0.37,0.33-0.74,0.49-1.11
		c-0.62,0.11-1.22,0.22-1.82,0.34c-2.51,0.51-5.06,1.04-7.53,1.55c-3.75,0.78-7.64,1.58-11.46,2.34c-3.2,0.64-6.45,1.26-9.6,1.86
		c-3.09,0.59-6.28,1.2-9.41,1.82c-3.2,0.64-6.46,1.31-9.61,1.96c-3.08,0.64-6.26,1.3-9.39,1.92c-3.94,0.79-7.94,1.56-11.82,2.31
		c-3.11,0.6-6.32,1.22-9.48,1.85c-3.32,0.66-6.7,1.33-9.97,1.99c-3.2,0.64-6.52,1.31-9.78,1.95c-0.02,0-0.03,0.01-0.05,0.01
		c-0.32,1.9-0.64,3.83-0.94,5.69c-0.28,1.68-0.56,3.41-0.85,5.12c-0.71,4.26-1.56,9.32-2.46,14.51c-0.38,2.22-0.78,4.48-1.16,6.66
		c-0.42,2.42-0.86,4.92-1.28,7.38c-0.3,1.73-0.58,3.5-0.86,5.2c-0.52,3.16-1.05,6.43-1.66,9.63c-0.05,0.29-0.12,0.64-0.18,0.97
		c0.32-0.06,0.67-0.14,0.95-0.2c4.4-0.95,8.9-1.8,13.24-2.63l1.78-0.34c0.01-0.01,0.03-0.01,0.04-0.02
		c1.72-0.91,2.61,0.28,2.84,0.66c0.68,1.14,0.04,2.14-0.2,2.51c-0.03,0.04-0.07,0.1-0.08,0.13c-2.12,4.78-4.28,9.63-6.37,14.32
		c-2.94,6.61-5.99,13.44-8.96,20.16c-0.27,0.6-0.64,1.26-1.36,1.6c-0.86,0.41-1.72,0.13-2.28-0.12c-3.21-1.39-6.87-1.81-11.53-1.33
		l-0.3,0.03c-1.49,0.16-2.39,0.25-3.22-0.26c-0.87-0.54-1.14-1.43-1.54-2.76c-0.04-0.13-0.08-0.26-0.12-0.41
		c-1.13-3.75-0.73-6.93,1.35-10.63c4.48-7.99,6.93-17.54,7.49-29.21c0.27-5.77-0.32-10.76-1.82-15.24
		c-3.84-11.48-13.21-18.68-25.71-19.77c-8.88-0.77-18,0.68-27.88,4.42c-9.46,3.58-17.35,9.19-23.43,16.66
		c-0.39,0.48-1.01,1.12-1.94,1.2c-0.92,0.08-1.63-0.43-2.14-0.88c-5.15-4.5-11.64-6.82-19.85-7.09c-8.01-0.26-16.11,1.19-24.75,4.44
		c-13.9,5.22-24.23,14.41-30.69,27.31c-2.82,5.62-4.81,11.61-6.09,18.33c-0.11,0.6-0.23,1.19-0.34,1.79
		c-0.84,4.38-1.71,8.9-2.16,13.36c-0.87,8.83-0.07,15.76,2.53,21.83c0.16,0.38,0.54,1.26,0.06,2.13c-0.49,0.88-1.49,1.03-1.87,1.09
		c-1.31,0.2-2.65,0.5-3.95,0.79c-0.45,0.1-0.91,0.2-1.37,0.3c-0.27,1.79-0.59,3.59-0.9,5.34c-0.76,4.35-1.55,8.84-1.71,13.3
		c-0.22,6.04,0.35,10.89,1.78,15.27c3.8,11.63,12.81,18.72,25.39,19.97c6.89,0.69,14.24-0.12,22.48-2.47
		c12.31-3.51,21.92-9.63,29.38-18.71c0.36-0.44,0.94-1.03,1.83-1.1c0.98-0.08,1.71,0.56,2.02,0.83c5.11,4.49,11.65,6.84,19.98,7.21
		c4.7,0.2,9.83-0.39,16.12-1.86c1.99-0.47,3.16,0.17,4.29,1.26c7.73,7.47,15.97,15.43,24.27,23.34c1.55,1.48,1.08,3.07,0.86,3.84
		c-0.23,0.77-0.46,1.55-0.69,2.32c-0.61,2.05-1.24,4.18-1.85,6.27c-2.34,8.01-5.1,17.48-7.86,26.98c-0.43,1.49-0.85,2.98-1.29,4.55
		l32.33-11.89l0.63,1.03c0.14,0.23,0.3,0.48,0.47,0.75c0.32,0.5,0.69,1.09,1.06,1.71c0.09-0.12,0.19-0.24,0.28-0.35
		c0.33-0.41,0.65-0.8,0.85-1.19c0.96-1.8,2.57-2.32,3.7-2.55c0.53-0.11,1.07-0.22,1.61-0.32c0.85-0.17,1.74-0.35,2.6-0.53
		C183.96,257.39,184.2,257.37,184.42,257.37z M285.13,218.27C285.13,218.27,285.13,218.27,285.13,218.27
		C285.13,218.27,285.13,218.27,285.13,218.27z M227.5,188.96C227.5,188.96,227.5,188.96,227.5,188.96S227.5,188.96,227.5,188.96z
		 M226.5,187.84C226.5,187.84,226.5,187.84,226.5,187.84C226.5,187.84,226.5,187.84,226.5,187.84z M244.7,187.45
		C244.7,187.45,244.7,187.45,244.7,187.45C244.7,187.45,244.7,187.45,244.7,187.45z"/>
	<path class="st1" d="M179.56,272.73c0.62-2.69,1.18-5.13,1.74-7.57c0.54-2.35,1.05-4.71,1.61-7.05c0.2-0.84-0.08-1.03-0.85-0.87
		c-1.4,0.3-2.81,0.57-4.22,0.86c-1.14,0.23-2.09,0.66-2.69,1.79c-0.48,0.9-1.26,1.63-1.82,2.5c-0.63,0.99-0.98,0.71-1.45-0.13
		c-0.67-1.21-1.44-2.36-1.96-3.2c-11.31,4.14-22.46,8.23-33.91,12.42c0.74-2.62,1.39-4.97,2.08-7.31
		c2.61-8.96,5.24-17.92,7.86-26.87c0.84-2.85,1.69-5.71,2.53-8.56c0.26-0.86,0.37-1.56-0.46-2.34c-8.13-7.71-16.2-15.48-24.27-23.25
		c-0.86-0.83-1.54-1.21-2.93-0.88c-5.42,1.26-10.92,2.13-16.52,1.89c-7.74-0.33-14.91-2.31-20.88-7.54c-0.68-0.6-1.09-0.68-1.73,0.1
		c-7.96,9.65-18.16,15.72-30.12,19.12c-7.56,2.14-15.23,3.28-23.03,2.51c-12.24-1.21-22.43-8.06-26.64-20.89
		c-1.68-5.11-2.04-10.38-1.85-15.72c0.23-6.46,1.72-12.74,2.68-19.09c0.1-0.65,0.47-0.72,0.92-0.81c1.86-0.39,3.71-0.85,5.58-1.14
		c0.91-0.14,1.01-0.41,0.68-1.18c-3.11-7.22-3.4-14.82-2.64-22.46c0.51-5.11,1.55-10.16,2.52-15.22c1.25-6.5,3.25-12.72,6.22-18.63
		C22.8,89.69,33.46,80.53,47.5,75.28c8.14-3.05,16.59-4.8,25.32-4.51c7.67,0.25,14.82,2.25,20.77,7.43
		c0.79,0.69,1.25,0.75,1.98-0.14c6.45-7.89,14.56-13.46,24.05-17.04c9.19-3.47,18.7-5.34,28.53-4.49
		c11.87,1.03,22.56,7.51,26.98,20.68c1.71,5.11,2.15,10.37,1.9,15.71c-0.5,10.44-2.51,20.58-7.67,29.74
		c-1.83,3.24-2.26,6.04-1.23,9.45c0.83,2.74,0.64,2.66,3.61,2.35c4.17-0.43,8.34-0.26,12.27,1.44c0.97,0.42,1.31,0.19,1.71-0.73
		c5.09-11.46,10.23-22.9,15.34-34.35c0.18-0.39,0.65-0.79,0.36-1.28c-0.37-0.62-0.84-0.04-1.23,0.03
		c-5.04,0.96-10.08,1.89-15.09,2.97c-3.07,0.66-3.12,0.6-2.54-2.47c0.93-4.9,1.67-9.83,2.51-14.75c0.8-4.66,1.64-9.32,2.44-13.98
		c0.83-4.81,1.64-9.63,2.45-14.45c0.61-3.65,1.2-7.3,1.82-10.95c0.11-0.64,0.55-0.9,1.19-1.03c6.59-1.3,13.16-2.63,19.75-3.93
		c7.1-1.39,14.2-2.73,21.3-4.14c6.34-1.26,12.66-2.61,19-3.87c6.33-1.25,12.68-2.41,19.02-3.67c6.34-1.26,12.66-2.59,18.99-3.88
		c1.45-0.29,2.91-0.52,4.57-0.81c-1.7,3.82-3.31,7.48-4.94,11.13c-14.2,31.77-28.4,63.53-42.61,95.3
		c-7.2,16.09-14.41,32.18-21.65,48.25c-1.13,2.51-1.5,5.22-2.24,7.83c-0.19,0.67,0.01,0.92,0.8,0.77c3.77-0.74,7.56-1.43,11.34-2.13
		c2.02-0.37,4.04-0.72,6.05-1.1c0.8-0.15,0.84,0.05,0.65,0.8c-0.68,2.74-1.25,5.51-1.88,8.27c-0.21,0.9-0.04,1.25,0.99,0.99
		c2.41-0.59,2.46-0.55,1.96,1.76c-0.36,1.65-0.86,3.27-1.26,4.91c-0.24,0.98-0.38,1.61,1.18,1.28c5.67-1.21,11.37-2.21,17.06-3.31
		c4.13-0.8,8.25-1.61,12.36-2.51c0.73-0.16,1.04,0.14,1.45,0.53c2.82,2.66,5.61,5.35,8.48,7.95c0.78,0.71,0.88,1.4,0.66,2.33
		c-0.7,2.89-1.37,5.79-2.05,8.69c-0.08,0.35-0.22,0.79-0.09,1.07c1.14,2.43-0.47,4.56-0.66,6.84c-0.16,1.89-1.05,2.63-2.93,2.8
		c-1.98,0.17-3.91,0.81-5.88,1.16c-0.89,0.16-1.34,0.59-1.6,1.42c-1.54,4.96-5.06,7.74-9.98,8.83c-6.9,1.54-13.88,2.71-20.77,4.35
		c-2.19,0.52-4.42,0.89-6.64,1.31c-0.67,0.13-1.13,0.42-1.31,1.12c-1.47,5.78-5.41,8.95-10.83,11.03
		c-13.71,5.27-27.31,10.81-40.95,16.24C180.18,272.55,180.04,272.58,179.56,272.73z"/>
	<path class="st2" d="M178.43,270.4c0.61-2.65,1.17-5.06,1.72-7.47c0.53-2.32,1.03-4.64,1.59-6.96c0.2-0.83-0.08-1.02-0.84-0.86
		c-1.39,0.3-2.78,0.56-4.17,0.84c-1.12,0.23-2.06,0.65-2.66,1.77c-0.47,0.89-1.25,1.61-1.79,2.47c-0.62,0.98-0.96,0.7-1.43-0.13
		c-0.66-1.19-1.42-2.33-1.94-3.16c-11.17,4.09-22.18,8.12-33.48,12.25c0.73-2.58,1.38-4.9,2.05-7.21
		c2.58-8.84,5.17-17.68,7.76-26.51c0.83-2.82,1.67-5.63,2.5-8.44c0.25-0.85,0.36-1.54-0.45-2.31c-8.02-7.61-16-15.27-23.97-22.94
		c-0.85-0.82-1.52-1.19-2.89-0.87c-5.35,1.25-10.79,2.1-16.32,1.87c-7.64-0.33-14.72-2.28-20.62-7.44c-0.67-0.59-1.08-0.67-1.71,0.1
		c-7.86,9.52-17.93,15.51-29.74,18.86c-7.46,2.12-15.04,3.24-22.74,2.48c-12.09-1.2-22.15-7.95-26.31-20.61
		c-1.66-5.04-2.02-10.24-1.83-15.51c0.23-6.37,1.7-12.57,2.65-18.84c0.1-0.64,0.46-0.71,0.91-0.8c1.83-0.39,3.66-0.84,5.51-1.12
		c0.9-0.14,1-0.41,0.67-1.17c-3.07-7.12-3.36-14.63-2.61-22.16c0.5-5.04,1.53-10.03,2.49-15.01c1.23-6.41,3.21-12.55,6.14-18.38
		c6.71-13.31,17.23-22.35,31.1-27.53c8.04-3.01,16.38-4.73,25-4.45c7.57,0.25,14.63,2.22,20.51,7.33c0.78,0.68,1.23,0.74,1.95-0.13
		c6.37-7.78,14.38-13.28,23.75-16.81c9.08-3.42,18.46-5.27,28.18-4.43c11.72,1.01,22.28,7.41,26.65,20.4
		c1.69,5.04,2.13,10.23,1.87,15.5c-0.49,10.3-2.48,20.3-7.58,29.34c-1.8,3.2-2.23,5.96-1.21,9.32c0.82,2.7,0.63,2.62,3.56,2.32
		c4.12-0.42,8.23-0.26,12.12,1.42c0.96,0.41,1.29,0.18,1.69-0.72c5.03-11.31,10.11-22.59,15.15-33.89c0.17-0.39,0.64-0.78,0.35-1.26
		c-0.36-0.61-0.83-0.04-1.21,0.03c-4.97,0.94-9.95,1.87-14.9,2.93c-3.03,0.65-3.08,0.59-2.5-2.44c0.92-4.83,1.65-9.7,2.48-14.55
		c0.79-4.6,1.62-9.2,2.41-13.8c0.82-4.75,1.62-9.5,2.42-14.25c0.61-3.6,1.19-7.2,1.8-10.8c0.11-0.63,0.55-0.89,1.17-1.01
		c6.5-1.28,13-2.6,19.5-3.87c7.01-1.38,14.03-2.69,21.03-4.08c6.26-1.24,12.5-2.58,18.76-3.82c6.25-1.24,12.52-2.38,18.78-3.62
		c6.26-1.24,12.5-2.56,18.75-3.83c1.43-0.29,2.87-0.51,4.51-0.8c-1.67,3.77-3.27,7.38-4.88,10.98
		c-14.02,31.34-28.04,62.68-42.07,94.02c-7.11,15.88-14.23,31.75-21.38,47.6c-1.12,2.48-1.48,5.15-2.22,7.72
		c-0.19,0.66,0.01,0.91,0.79,0.76c3.73-0.73,7.46-1.41,11.2-2.1c1.99-0.37,3.99-0.71,5.98-1.09c0.79-0.15,0.83,0.05,0.65,0.78
		c-0.67,2.71-1.23,5.44-1.86,8.16c-0.2,0.89-0.04,1.23,0.98,0.98c2.38-0.59,2.43-0.54,1.94,1.73c-0.35,1.63-0.85,3.22-1.25,4.84
		c-0.24,0.96-0.38,1.59,1.17,1.26c5.59-1.19,11.23-2.18,16.85-3.27c4.08-0.79,8.15-1.59,12.2-2.48c0.72-0.16,1.02,0.14,1.43,0.52
		c2.78,2.62,5.54,5.28,8.37,7.84c0.77,0.7,0.87,1.38,0.65,2.3c-0.69,2.85-1.36,5.71-2.02,8.57c-0.08,0.34-0.22,0.78-0.09,1.05
		c1.12,2.4-0.46,4.5-0.65,6.75c-0.16,1.87-1.04,2.59-2.9,2.76c-1.95,0.17-3.86,0.8-5.8,1.14c-0.88,0.15-1.33,0.58-1.58,1.4
		c-1.52,4.89-5,7.63-9.85,8.72c-6.82,1.52-13.71,2.67-20.51,4.29c-2.16,0.52-4.37,0.88-6.55,1.3c-0.66,0.12-1.11,0.41-1.29,1.11
		c-1.45,5.7-5.34,8.83-10.69,10.88c-13.54,5.19-26.97,10.66-40.44,16.02C179.04,270.22,178.9,270.26,178.43,270.4z"/>
	<g>
		<path class="st0" d="M31.37,208.16c-1.76,0-3.5-0.1-5.24-0.29l-0.16-0.02l-0.16-0.04c-3.18-0.88-7.21-2.35-10.17-5.96l-0.07-0.1
			c-3.53-4.88-3.95-10.3-3.92-14.48c0.02-2.73,0.33-5.42,0.64-7.69c0.25-1.83,1.23-2.88,2.99-3.22c3.84-0.74,7.75-1.53,11.52-2.28
			c1.08-0.22,2.16-0.43,3.24-0.65c0.49-0.1,0.99-0.2,1.48-0.29c1.56-0.31,3.16-0.63,4.73-0.97c0.57-0.12,2.09-0.46,3.17,0.61
			c0.72,0.7,0.96,1.7,0.71,2.98c-0.03,0.13,0,0.45,0.03,0.71c0.02,0.19,0.03,0.39,0.04,0.61c0.1,0.8,0.42,1.39,1.62,1.65
			c0.88,0.2,1.78,0.09,2.69-0.31l0.24-0.1l0.26-0.04c3.72-0.6,6.25-3.32,6.95-7.46l0.02-0.14l0.04-0.14
			c0.37-1.15,0.52-2.39,0.69-3.7c0.06-0.45,0.12-0.92,0.19-1.39l0.01-0.07l0.15-0.8c-1.26,0.58-2.51,0.94-3.62,1.21
			c-5.96,1.44-11.4,1.76-16.63,0.96l-0.09-0.01l-0.08-0.02c-4.16-1-7.39-2.86-9.88-5.69l-0.07-0.07l-0.06-0.08
			c-2.76-3.82-4.09-8.29-3.95-13.29c0.29-10.8,2.07-20.88,5.32-29.97c5.19-14.54,15.8-24.06,31.53-28.3
			c6.22-1.68,11.48-2.29,16.54-1.94c4.18,0.29,7.66,1.51,10.64,3.72l0.09,0.07c3.56,2.98,5.01,6.96,5.88,10.1l0.04,0.15l0.02,0.16
			c0.48,4.13,0.56,7.33,0.27,10.38c-0.33,3.47-0.94,6.91-1.53,10.24c-0.2,1.13-0.41,2.3-0.6,3.44l-0.26,1.53
			c-1.43,8.57-2.91,17.43-4.48,26.13c-0.34,1.92-0.66,3.88-0.96,5.78c-0.79,4.96-1.61,10.09-3.08,15.07
			c-2.02,6.88-5.11,12.81-9.16,17.62c-4.25,5.04-9.67,8.99-16.12,11.74c-4.38,1.87-8.75,3.19-13.01,3.93
			C37.02,207.92,34.18,208.16,31.37,208.16z M26.74,203.85c8.02,0.86,16.04-0.48,24.51-4.09c11.62-4.96,19.14-13.71,22.98-26.76
			c1.39-4.73,2.19-9.73,2.96-14.56c0.31-1.92,0.62-3.9,0.97-5.86c1.56-8.68,3.04-17.53,4.47-26.08l0.26-1.53
			c0.19-1.16,0.4-2.34,0.6-3.48c0.58-3.25,1.17-6.61,1.49-9.92c0.26-2.71,0.19-5.61-0.24-9.36c-1.05-3.71-2.43-6.14-4.49-7.88
			c-2.33-1.72-5.1-2.66-8.45-2.9c-4.6-0.32-9.43,0.26-15.2,1.81c-14.37,3.87-24.04,12.53-28.76,25.74
			c-3.1,8.68-4.81,18.34-5.08,28.71c-0.11,4.05,0.95,7.66,3.13,10.73c1.89,2.12,4.39,3.53,7.63,4.33c4.68,0.7,9.58,0.4,14.98-0.91
			c2.87-0.7,4.6-1.63,5.95-3.22l4.93-5.8l-2.44,13.27c-0.06,0.42-0.11,0.83-0.17,1.27c-0.18,1.39-0.36,2.83-0.81,4.28
			c-0.49,2.79-1.67,5.23-3.41,7.07c-1.75,1.85-4.03,3.07-6.62,3.54c-1.63,0.66-3.34,0.82-4.98,0.45c-2.75-0.62-4.49-2.53-4.78-5.26
			l-0.01-0.07l0-0.07c0-0.14-0.02-0.3-0.03-0.47c-0.01-0.14-0.03-0.29-0.04-0.45c-1.26,0.27-2.53,0.52-3.76,0.76
			c-0.49,0.1-0.98,0.19-1.47,0.29c-1.08,0.22-2.16,0.43-3.24,0.65c-3.7,0.74-7.53,1.51-11.31,2.24c-0.28,2.11-0.57,4.57-0.58,7
			c-0.03,5.26,0.93,8.97,3.11,12.02C20.57,201.43,22.95,202.79,26.74,203.85z M36.17,174.82L36.17,174.82L36.17,174.82z
			 M49.73,141.78c-1.07,0-2.07-0.21-3.03-0.62c-2.17-0.75-3.35-2.49-3.51-5.17c-0.14-2.4,0.3-4.65,0.72-6.82
			c0.18-0.93,0.35-1.81,0.48-2.69c0.31-2.15,0.7-4.43,1.76-6.6c1.2-2.45,3.13-4.41,5.61-5.66c2.11-1.06,4.54-1.6,7.05-1.55
			c3.78,0.07,5.03,2.34,5.44,3.8c0.76,1.86,0.79,3.84,0.08,6.04l-0.06,0.47c-0.39,3.28-0.8,6.67-1.89,9.94
			c-1.51,4.52-4.77,7.38-9.44,8.29C51.81,141.59,50.74,141.78,49.73,141.78z M58.54,116.74c-1.71,0-6.55,0.42-8.74,4.92
			c-0.8,1.65-1.12,3.5-1.39,5.4c-0.14,0.99-0.33,1.95-0.52,2.89c-0.39,2.01-0.77,3.91-0.65,5.79c0.08,1.34,0.46,1.46,0.82,1.58
			l0.1,0.03l0.1,0.04c0.98,0.44,2.06,0.41,3.5-0.08l0.14-0.05l0.15-0.03c3.3-0.61,5.41-2.44,6.47-5.6c0.96-2.88,1.32-5.92,1.71-9.14
			l0.11-0.88l0.07-0.2c0.46-1.37,0.48-2.47,0.04-3.48l-0.07-0.15l-0.04-0.16c-0.1-0.39-0.22-0.86-1.62-0.89
			C58.67,116.74,58.61,116.74,58.54,116.74z"/>
		<path class="st0" d="M104.58,193.48c-1.84,0-3.71-0.08-5.61-0.25l-0.17-0.01l-0.17-0.04c-2.82-0.74-6.91-2.15-9.86-5.81
			l-0.05-0.06c-2.18-2.94-3.43-6.45-3.83-10.74c-0.39-4.22,0.02-8.26,0.48-11.65c0.22-1.67,1.24-2.76,2.85-3.08
			c7.11-1.39,14.47-2.82,21.69-4.28c0.42-0.09,1.71-0.35,2.68,0.59c0.96,0.93,0.74,2.2,0.66,2.67c-0.05,0.28-0.14,0.8-0.06,0.96
			l0.13,0.28l0.04,0.31c0.18,1.4,0.4,1.55,1.54,1.76c1.01,0.19,2.05-0.04,3.03-0.31l0.12-0.03c3.93-0.83,6.17-3.2,7.05-7.46
			c0.38-1.83,0.67-3.73,0.96-5.57c0.13-0.84,0.27-1.72,0.41-2.58c0.04-0.27,0.09-0.54,0.14-0.79c0.23-1.28,0.35-2.03-0.03-2.69
			l-0.32-0.56l0.03-0.35c-0.02-0.02-0.04-0.03-0.06-0.05c-0.77-0.61-1.69-0.71-3.18-0.33l-0.22,0.06l-0.85,0.02l-4.31,0.94
			c-2.03,0.31-3.38,0.51-4.44-0.57c-1.07-1.08-0.83-2.49-0.51-4.44c0.73-4.34,1.49-8.75,2.23-13.01c0.39-2.27,0.79-4.54,1.17-6.81
			c0.02-0.13,0.03-0.32,0.04-0.51c0.01-0.13,0.02-0.26,0.03-0.39l0.03-0.36l0.15-0.33c0.69-1.5,2.05-1.75,2.71-1.87
			c0.06-0.01,0.11-0.02,0.17-0.03c1.73-0.34,3.48-0.72,5.18-1.09c0.64-0.14,1.27-0.27,1.91-0.41c4.09-0.93,6.54-3.5,7.1-7.44
			l0.02-0.14l0.04-0.13c0.42-1.49,0.43-2.6,0.01-3.59l-0.05-0.12l-0.03-0.12c-0.09-0.32-0.23-0.81-1.41-0.85
			c-1.9-0.06-8.23,0.26-9.88,7.04c-0.45,1.84-1.53,2.86-3.41,3.22c-3.3,0.63-6.66,1.32-9.9,1.99c-1.21,0.25-2.42,0.5-3.63,0.75
			l-0.05,0.01l-5.43,0.96c-0.47,0.1-0.87,0.19-1.23,0.27c-0.61,0.14-1.04,0.23-1.44,0.28c-0.95,0.12-1.71-0.11-2.26-0.67
			c-0.97-0.99-0.69-2.18-0.39-3.45c0.09-0.39,0.2-0.83,0.31-1.36c1.69-8.16,4.73-14.98,9.3-20.85c3.18-4.09,7.06-7.52,11.53-10.2
			c4.11-2.47,8.87-4.38,14.14-5.7c5.03-1.25,11.04-2.41,17.44-1.46c3.15,0.47,6.05,1.63,8.85,3.56l0.19,0.13l0.29,0.32
			c1.08,1.19,2.21,2.42,3.1,3.96c0.82,1.42,1.29,2.87,1.73,4.27c0.17,0.53,0.33,1.04,0.51,1.53l0.08,0.21l0.03,0.22
			c1.15,9.17-0.19,18.46-4.09,28.42c-2.3,5.86-5.57,10.16-9.98,13.07c0.44,0.21,0.88,0.44,1.3,0.7l0.17,0.11l0.15,0.14
			c1.58,1.46,2.64,3.01,3.23,4.73c0.3,0.87,0.53,1.74,0.76,2.58c0.1,0.37,0.19,0.72,0.29,1.06l0.06,0.2l0.01,0.21
			c0.4,5.58-0.18,11.49-1.76,18.07c-2.37,9.87-6.36,17.4-12.2,23.01c-5.57,5.36-11.94,9.22-18.92,11.48
			C115.87,192.66,110.39,193.48,104.58,193.48z M99.5,189.2c14.91,1.25,27.54-2.98,37.52-12.58c5.26-5.06,8.87-11.93,11.06-21.03
			c1.46-6.08,2.01-11.52,1.67-16.63c-0.09-0.31-0.17-0.61-0.25-0.91c-0.22-0.81-0.42-1.57-0.67-2.3c-0.35-1.02-1.01-1.98-2-2.93
			c-1.48-0.86-3.08-1.29-4.89-1.32l-9.03-0.13l8.22-3.75c0.32-0.15,0.64-0.29,0.95-0.42c0.65-0.28,1.26-0.55,1.83-0.85
			c4.54-2.41,7.84-6.38,10.1-12.16c3.62-9.23,4.88-17.81,3.87-26.22c-0.17-0.49-0.33-0.98-0.48-1.45c-0.4-1.25-0.78-2.43-1.38-3.46
			c-0.67-1.15-1.59-2.16-2.56-3.23c-2.22-1.49-4.49-2.4-6.95-2.76c-5.7-0.84-11.22,0.23-15.86,1.38
			C120.47,81,112.8,85.73,107.2,92.91c-4.18,5.37-6.97,11.64-8.53,19.18c-0.01,0.06-0.02,0.12-0.04,0.18
			c0.09-0.02,0.18-0.04,0.27-0.06l0.06-0.01l5.43-0.96c1.2-0.24,2.4-0.49,3.6-0.74c3.26-0.67,6.63-1.37,9.97-2
			c0.07-0.01,0.13-0.03,0.18-0.04c0.01-0.04,0.03-0.09,0.04-0.15c1.88-7.76,8.45-10.33,13.96-10.14c2.59,0.09,4.46,1.43,5.15,3.68
			c0.95,2.35,0.56,4.54,0.15,6.03c-0.41,2.75-1.51,5.08-3.26,6.92c-1.76,1.86-4.1,3.13-6.96,3.78l-0.03,0.01
			c-0.64,0.14-1.28,0.27-1.91,0.41c-1.67,0.36-3.41,0.73-5.12,1.08c-0.01,0.07-0.02,0.14-0.03,0.21c-0.39,2.27-0.78,4.55-1.18,6.82
			c-0.74,4.26-1.5,8.66-2.22,12.99c-0.02,0.11-0.04,0.24-0.06,0.37c0.11-0.02,0.22-0.03,0.33-0.05l9.58-2.09l-0.65,0.92
			c0.92,0.18,1.9,0.56,2.84,1.31c0.96,0.76,1.5,1.64,1.61,2.61c0.83,1.81,0.51,3.54,0.26,4.95c-0.04,0.24-0.09,0.48-0.12,0.7l0,0.02
			c-0.14,0.84-0.27,1.71-0.4,2.54c-0.29,1.89-0.6,3.85-0.99,5.78c-0.58,2.8-1.7,5.12-3.33,6.88c-1.72,1.86-4.01,3.11-6.8,3.72
			c-1.37,0.38-3.01,0.71-4.81,0.37c-2.86-0.54-4.34-2.08-4.79-4.98c-0.16-0.44-0.23-0.88-0.26-1.29
			c-6.59,1.32-13.27,2.63-19.75,3.89c-0.41,3.1-0.76,6.74-0.42,10.44c0.32,3.51,1.31,6.34,3.02,8.66
			C93.63,186.9,95.96,188.25,99.5,189.2z M88.97,165.84L88.97,165.84L88.97,165.84z M109.27,159.99
			C109.27,159.99,109.27,159.99,109.27,159.99C109.27,159.99,109.27,159.99,109.27,159.99z M118.26,108.42
			C118.26,108.42,118.26,108.42,118.26,108.42C118.26,108.42,118.26,108.42,118.26,108.42z"/>
		<path class="st0" d="M186.01,177.92c-0.56,0-1.21-0.16-1.79-0.73c-0.66-0.66-0.91-1.58-0.66-2.46c0.14-0.5,0.41-0.87,0.57-1.09
			c0.01-0.01,0.02-0.03,0.03-0.04c4.78-10.72,9.66-21.61,14.37-32.15l3.12-6.96c7.68-17.15,14.08-31.46,20.15-45.02
			c0.06-0.13,0.12-0.32,0.19-0.51c0.04-0.12,0.08-0.24,0.12-0.36l0.06-0.17l0.09-0.15c0.87-1.53,1.64-3.24,2.36-5.23
			c-1.3,0.25-2.61,0.52-3.9,0.8c-1.32,0.29-2.65,0.54-3.94,0.78c-2.18,0.41-4.23,0.79-6.26,1.37l-0.19,0.06l-0.2,0.02
			c-1.84,0.15-3.27,0.43-4.51,0.88l-0.2,0.07l-0.21,0.03c-0.33,0.05-0.65,0.09-0.95,0.12c-0.62,0.07-1.21,0.14-1.72,0.28
			c-0.45,0.12-1.8,0.48-2.86-0.48c-1.04-0.96-0.8-2.33-0.7-2.92c0.64-3.63,1.26-7.34,1.87-10.92c0.23-1.37,0.46-2.74,0.69-4.11
			c0.12-0.69,0.24-1.4,0.36-2.07c0.28-1.57,0.57-3.18,0.78-4.76c0.25-1.89,1.35-3.03,3.27-3.41c7.91-1.55,15.96-3.15,23.73-4.7
			c2.36-0.47,4.73-0.94,7.09-1.41l2.8-0.56c8.83-1.75,17.96-3.57,26.95-5.34c0.03-0.01,0.06-0.02,0.09-0.02
			c1.7-0.5,2.64,0.21,3.13,0.9c0.44,0.62,0.79,1.64-0.07,2.98c0,0,0,0.01-0.01,0.01c-0.18,0.46-0.37,0.9-0.56,1.32
			c-0.08,0.17-0.15,0.35-0.23,0.52l-0.02,0.05c-0.23,0.49-0.46,0.98-0.69,1.45c-0.63,1.29-1.22,2.51-1.59,3.78l-0.08,0.26
			l-0.14,0.23c-0.05,0.09-0.11,0.18-0.17,0.27c-0.04,0.06-0.09,0.14-0.11,0.18c-12.81,28.61-25.29,56.48-35.81,79.98l-2.43,5.42
			c-3.77,8.42-7.67,17.13-11.48,25.7c-0.71,1.6-1.87,2.5-3.64,2.83c-3.86,0.72-7.78,1.52-11.57,2.29c-1.38,0.28-2.75,0.56-4.13,0.84
			l-0.05,0.01c-0.35,0.06-0.7,0.12-1.05,0.18c-1.58,0.27-3.07,0.52-4.48,0.98l-0.31,0.1l-0.33,0c0,0,0,0-0.01,0
			c-0.6,0-1.27,0.16-1.98,0.32c-0.47,0.11-0.96,0.22-1.48,0.31c-0.03,0.01-0.08,0.03-0.13,0.04
			C186.99,177.78,186.54,177.92,186.01,177.92z M187.31,177.67C187.31,177.67,187.31,177.67,187.31,177.67
			C187.31,177.67,187.31,177.67,187.31,177.67z M225.89,90.13c-0.01,0.04-0.03,0.08-0.04,0.13c-0.09,0.26-0.19,0.56-0.33,0.87
			c-6.07,13.56-12.47,27.86-20.15,45.02l-3.12,6.96c-4.41,9.86-8.97,20.03-13.45,30.08c0.52-0.11,1.08-0.2,1.67-0.22
			c1.61-0.5,3.22-0.77,4.79-1.04c0.33-0.06,0.66-0.11,0.99-0.17c1.36-0.28,2.73-0.55,4.09-0.83c3.81-0.78,7.74-1.58,11.64-2.31
			c0.5-0.09,0.52-0.14,0.67-0.49c3.81-8.58,7.71-17.29,11.49-25.71l2.43-5.42c10.52-23.5,23-51.38,35.82-79.99
			c0.13-0.28,0.27-0.51,0.39-0.69c0.46-1.48,1.11-2.82,1.74-4.12c0.16-0.34,0.32-0.66,0.47-0.98c-8.23,1.63-16.54,3.28-24.61,4.88
			l-2.8,0.56c-2.36,0.47-4.73,0.94-7.09,1.41c-7.78,1.55-15.83,3.15-23.75,4.7c-0.01,0-0.02,0-0.03,0.01
			c-0.22,1.65-0.52,3.29-0.8,4.88c-0.12,0.67-0.24,1.36-0.36,2.04c-0.23,1.37-0.46,2.74-0.69,4.1c-0.52,3.08-1.05,6.24-1.6,9.38
			c0.17-0.02,0.35-0.04,0.52-0.06c0.22-0.03,0.44-0.05,0.65-0.08c1.49-0.52,3.15-0.85,5.17-1.03c2.15-0.6,4.33-1.01,6.44-1.4
			c1.25-0.23,2.55-0.48,3.8-0.75c1.69-0.37,3.4-0.71,5.05-1.03c0.41-0.08,0.83-0.16,1.24-0.24c0.04-0.01,0.09-0.02,0.13-0.03
			c0.52-0.13,1.6-0.39,2.81,0.36l1.56,0.96l-2.21,4.57C227.67,86.61,226.83,88.46,225.89,90.13z"/>
		<path class="st0" d="M161.9,179.24c-0.09,0-0.18,0-0.27,0l-0.17,0l-2.6-1.04l-0.12-0.1c-1.71-1.48-2.45-3.47-2.28-6.09
			c0.27-4.01,0.89-7.57,1.9-10.9c2.41-7.91,9.67-10.59,15.67-10.46c1.69,0.04,3.24,0.74,4.5,2.02l0.12,0.12l0.07,0.15
			c0.35,0.79,0.7,1.59,1.05,2.38l0.07,0.15l0.01,0.17c0.18,3.6-0.56,7.08-1.27,10.44c-0.06,0.29-0.12,0.57-0.18,0.86
			c-0.56,2.68-1.62,4.97-3.16,6.81c-1.59,1.91-3.69,3.35-6.26,4.29C166.8,178.85,164.49,179.24,161.9,179.24z M161.82,177.41
			c0.03,0,0.05,0,0.08,0c2.37,0,4.48-0.35,6.45-1.07c4.46-1.63,7.24-4.91,8.25-9.75c0.06-0.29,0.12-0.58,0.18-0.87
			c0.68-3.2,1.38-6.51,1.24-9.81c-0.3-0.69-0.6-1.38-0.91-2.07c-0.9-0.87-1.95-1.33-3.12-1.36c-5.32-0.12-11.76,2.22-13.88,9.16
			c-0.97,3.19-1.57,6.62-1.83,10.49c-0.13,1.97,0.36,3.4,1.54,4.48L161.82,177.41z"/>
	</g>
	<g>
		<path class="st3" d="M16.52,194.39c-2.82-3.9-3.5-8.37-3.47-13.02c0.02-2.44,0.28-4.86,0.61-7.29c0.13-0.94,0.45-1.3,1.34-1.47
			c4.84-0.93,9.66-1.91,14.49-2.88c2.04-0.41,4.09-0.8,6.12-1.25c1.04-0.23,1.69-0.17,1.43,1.19c-0.11,0.58,0.02,1.21,0.04,1.82
			c0.2,1.92,1.35,3.02,3.14,3.42c1.31,0.29,2.63,0.13,3.88-0.42c4.49-0.73,7.64-4.06,8.46-8.95c0.55-1.72,0.67-3.52,0.94-5.3
			c0.35-1.9,0.7-3.8,1.05-5.71c-1.88,2.21-4.28,3.17-6.88,3.8c-5.13,1.24-10.3,1.71-15.54,0.91c-3.37-0.81-6.33-2.32-8.66-4.96
			c-2.55-3.53-3.61-7.58-3.5-11.82c0.26-9.83,1.79-19.5,5.1-28.77c5.03-14.1,15.25-22.64,29.56-26.49
			c5.09-1.37,10.25-2.21,15.56-1.84c3.44,0.24,6.6,1.19,9.39,3.26c2.8,2.34,4.18,5.5,5.13,8.91c0.38,3.24,0.57,6.49,0.26,9.76
			c-0.43,4.47-1.33,8.86-2.07,13.28c-1.51,9.04-3.02,18.08-4.64,27.11c-1.22,6.76-1.96,13.62-3.91,20.24
			c-3.74,12.73-11.3,22.25-23.66,27.52c-8.03,3.42-16.41,5.11-25.19,4.14C22.04,198.63,18.86,197.25,16.52,194.39z M51.05,134.26
			c3.96-0.73,6.62-3.07,7.87-6.82c1.08-3.23,1.44-6.64,1.84-10.02c0.55-1.62,0.68-3.23-0.02-4.84c-0.46-1.82-1.91-2.35-3.48-2.38
			c-3.96-0.07-8.46,1.58-10.59,5.95c-0.91,1.87-1.25,3.87-1.54,5.88c-0.43,2.97-1.34,5.88-1.16,8.92c0.09,1.51,0.56,2.8,2.18,3.33
			C47.78,135.01,49.42,134.83,51.05,134.26z"/>
		<path class="st3" d="M97.02,109.71c-3.91,0.81-3.34,1.18-2.58-2.48c1.48-7.17,4.21-13.81,8.74-19.63
			c6.18-7.94,14.49-12.49,24.08-14.88c5.35-1.34,10.76-2.22,16.33-1.39c2.89,0.43,5.46,1.52,7.84,3.16c1.06,1.16,2.12,2.3,2.92,3.68
			c0.98,1.69,1.4,3.56,2.05,5.36c1.17,9.32-0.5,18.25-3.89,26.9c-2.15,5.49-5.47,10.11-10.83,12.96c-0.91,0.49-1.88,0.87-2.83,1.3
			c2.19,0.03,4.16,0.58,5.97,1.68c1.16,1.08,2.12,2.32,2.64,3.82c0.39,1.13,0.67,2.31,0.99,3.46c0.41,5.8-0.32,11.49-1.67,17.11
			c-1.96,8.16-5.28,15.7-11.4,21.59c-10.75,10.34-23.82,14.15-38.52,12.87c-3.34-0.88-6.39-2.25-8.62-5.02
			c-2.1-2.83-3.05-6.07-3.37-9.53c-0.34-3.68-0.03-7.33,0.46-10.98c0.1-0.78,0.44-1.18,1.2-1.33c7.1-1.38,14.19-2.77,21.28-4.2
			c0.95-0.19,1.06,0.1,0.92,0.92c-0.12,0.69-0.23,1.42,0.09,2.1c0.28,2.18,1.08,3.05,3.12,3.44c1.33,0.25,2.6,0.01,3.87-0.34
			c4.84-1.03,7.49-4.18,8.45-8.86c0.55-2.67,0.91-5.38,1.35-8.08c0.25-1.58,0.76-3.18-0.14-4.73c0.06-0.69-0.37-1.15-0.83-1.51
			c-1.47-1.16-3.14-1.13-4.85-0.69c-0.22,0.01-0.45,0.01-0.67,0.02l0.02-0.03c-1.48,0.32-2.96,0.65-4.44,0.97
			c-3.06,0.47-3.1,0.46-2.59-2.61c1.08-6.48,2.22-12.95,3.33-19.43c0.06-0.35,0.06-0.7,0.09-1.06c0.28-0.6,0.83-0.63,1.4-0.74
			c2.34-0.47,4.66-0.98,6.99-1.48c4.83-1.1,7.84-4.27,8.51-8.96c0.46-1.62,0.6-3.24-0.07-4.84c-0.46-1.63-1.76-2.23-3.23-2.28
			c-4.73-0.16-10.12,1.98-11.69,8.42c-0.26,1.09-0.73,1.47-1.78,1.67c-4.44,0.84-8.87,1.78-13.3,2.68
			C100.59,109.07,98.81,109.39,97.02,109.71z"/>
		<path class="st3" d="M186.75,169.32c-1.29,0-2.49,0.45-3.75,0.65c-0.44,0.07-0.96,0.42-1.31,0.08c-0.42-0.42,0.15-0.83,0.32-1.2
			c5.71-12.82,11.46-25.63,17.19-38.44c6.59-14.71,13.18-29.43,19.76-44.14c0.14-0.32,0.24-0.66,0.36-1c1-1.75,1.8-3.59,2.47-5.49
			c0.48-0.99,0.96-1.98,1.43-2.96c-0.58-0.36-1.02-0.15-1.46-0.06c-2.04,0.4-4.09,0.79-6.13,1.24c-3.37,0.74-6.79,1.19-10.12,2.13
			c-1.69,0.14-3.35,0.39-4.95,0.98c-0.95,0.14-1.93,0.19-2.85,0.44c-1.13,0.3-1.17-0.14-1.01-1.06c0.86-4.91,1.68-9.83,2.51-14.74
			c0.38-2.26,0.82-4.51,1.13-6.77c0.14-1.05,0.6-1.45,1.61-1.65c10.08-1.97,20.16-3.99,30.23-5.99c9.73-1.93,19.45-3.87,29.18-5.79
			c0.37-0.07,0.84-0.35,1.13,0.06c0.24,0.34-0.16,0.65-0.28,0.97c-0.23,0.62-0.51,1.22-0.77,1.82c-0.82,1.78-1.78,3.5-2.34,5.4
			c-0.13,0.21-0.29,0.42-0.39,0.64c-11.71,26.14-23.42,52.29-35.12,78.44c-4.55,10.17-9.11,20.34-13.64,30.52
			c-0.44,0.99-1.03,1.43-2.11,1.63c-5.15,0.96-10.28,2.04-15.42,3.08C190.53,168.45,188.6,168.71,186.75,169.32z"/>
		<path class="st3" d="M156.98,173.28c-1.6-1.39-2.06-3.22-1.92-5.23c0.24-3.56,0.79-7.08,1.83-10.48
			c2.28-7.48,9.15-9.74,14.49-9.62c1.47,0.03,2.75,0.65,3.79,1.71c0.34,0.78,0.68,1.56,1.02,2.34c0.18,3.7-0.66,7.29-1.41,10.86
			c-1.03,4.9-3.84,8.46-8.66,10.22c-2.22,0.81-4.53,1.13-6.88,1.1C158.48,173.88,157.73,173.58,156.98,173.28z"/>
	</g>
	<g>
		<path class="st2" d="M103.8,233.69c-0.86,4.21-1.64,8.23-2.54,12.23c-0.3,1.33-1.79,0.51-2.74,1.04c0.21-0.91,0.43-1.81,0.65-2.71
			c0.06-0.26,0.11-0.55-0.16-0.66c-0.25-0.1-0.47,0.1-0.61,0.34c-0.51,0.91-0.77,1.97-1.7,2.83c-0.16-1.23-0.32-2.38-0.47-3.52
			c-0.14,0-0.28-0.01-0.41-0.01c-0.2,1.04-0.42,2.07-0.61,3.12c-0.26,1.4-1.11,2.02-2.46,1.81c-0.56-0.09-0.45-0.45-0.37-0.79
			c0.84-3.81,1.68-7.63,2.55-11.43c0.25-1.07,1.35-0.69,2.03-0.96c0.71-0.28,0.67,0.56,0.74,1.01c0.14,0.95,0.2,1.92,0.32,2.88
			c0.03,0.23,0.04,0.53,0.38,0.57c0.34,0.04,0.4-0.25,0.5-0.46c0.46-0.91,0.91-1.82,1.36-2.72
			C101.27,234.24,101.27,234.24,103.8,233.69z"/>
		<path class="st2" d="M80,242.88c1.15-1.19,1.17-2.47,1.26-3.58c0.12-1.47,1.2-1.52,2.11-1.74c0.73-0.18,0.58,0.45,0.48,0.91
			c-0.68,3.28-1.34,6.56-2.06,9.83c-0.14,0.63,0.04,1.37-0.48,1.89c-0.66,0.65-1.57,0.57-2.31,0.46c-0.69-0.11-0.26-0.94-0.35-1.45
			c-0.14-0.77,0.29-1.73-0.8-2.39c-0.24,1.17-0.45,2.19-0.65,3.21c-0.23,1.17-1.38,1.87-2.51,1.57c-0.46-0.12-0.34-0.39-0.27-0.69
			c0.84-3.77,1.67-7.54,2.51-11.31c0.25-1.13,1.31-1.02,2.05-1.17c0.83-0.17,0.7,0.7,0.76,1.2C79.87,240.6,79.91,241.59,80,242.88z"
			/>
		<path class="st2" d="M60.49,241.99c-0.61,3.04-1.18,5.86-1.74,8.68c-0.1,0.5-0.55,1.16,0.38,1.33c0.71,0.12,1.2-0.31,1.35-0.97
			c0.39-1.63,0.71-3.27,1.06-4.91c0.24-1.14,0.5-2.28,0.74-3.42c0.11-0.51,0.19-1.04,0.8-1.17c0.58-0.12,1.35-0.46,1.71-0.22
			c0.52,0.35-0.12,1-0.21,1.52c-0.49,2.8-0.98,5.6-1.79,8.32c-0.71,2.35-2.48,3.61-4.87,3.67c-1.36,0.03-2.25-0.89-2-2.23
			c0.57-2.99,1.26-5.95,1.82-8.94C58.03,242.08,59.33,242.41,60.49,241.99z"/>
		<path class="st2" d="M46.96,254.46c0.54-2.57,0.77-5.37,1.86-7.95c0.85-2.03,2.75-3.05,4.89-2.91c1.02,0.07,1.67,0.51,1.58,1.61
			c-0.25,3.14-0.9,6.19-1.98,9.14c-0.26,0.71-0.81,1.29-1.55,1.61c-0.39,0.17-0.81,0.45-0.78,0.86c0.06,1.1-0.63,1.26-1.47,1.47
			c-0.89,0.23-1.55,0.45-1.16-0.89c0.08-0.26-0.03-0.54-0.32-0.6C46.71,256.53,47.05,255.48,46.96,254.46z M49.41,252.57
			c0.15,0.56-0.2,1.17,0.47,1.3c0.59,0.11,1.25,0.21,1.62-0.49c0.14-0.27,0.34-0.53,0.4-0.81c0.35-1.65,0.72-3.3,0.94-4.97
			c0.06-0.46,0.48-1.31-0.5-1.49c-0.8-0.15-1.42,0.14-1.63,0.98C50.25,248.95,49.82,250.83,49.41,252.57z"/>
		<path class="st2" d="M86.13,249.36c-1.52,0.04-2.42-0.79-2.15-2.19c0.45-2.38,0.94-4.77,1.6-7.11c0.66-2.31,2.33-3.48,4.71-3.62
			c1.49-0.09,2.3,0.62,2.1,2.07c-0.35,2.61-0.78,5.23-1.65,7.7C90.02,248.25,88.32,249.26,86.13,249.36z M89.76,240.07
			c-0.01-0.47-0.08-0.83-0.65-0.86c-0.75-0.03-1.14,0.43-1.28,1.07c-0.36,1.64-0.65,3.29-0.99,4.93c-0.11,0.53-0.52,1.18,0.28,1.41
			c0.8,0.24,1.29-0.43,1.45-1.05C89.04,243.75,89.37,241.9,89.76,240.07z"/>
		<path class="st2" d="M110.14,238.68c0,1.68,0.01,3.37-0.01,5.05c-0.01,0.83-1.18,1.75-2.08,1.55c-0.79-0.18-0.32-0.91-0.4-1.38
			c-0.07-0.4,0.36-1.05-0.35-1.11c-0.69-0.06-1.46,0.09-1.87,0.78c-0.23,0.39-0.39,0.84-0.46,1.28c-0.19,1.12-1.07,1.26-1.93,1.39
			c-0.64,0.1-0.84-0.22-0.6-0.82c1.58-3.9,3.16-7.8,4.75-11.69c0.51-1.25,1.76-0.99,2.74-1.15c0.37-0.06,0.28,0.57,0.28,0.9
			c0.01,1.73,0,3.47,0,5.2C110.19,238.68,110.17,238.68,110.14,238.68z M107.67,238.43c-0.55,0.57-0.68,1.26-0.8,1.93
			c-0.02,0.13,0.36,0.23,0.52,0.09C108,239.89,107.77,239.18,107.67,238.43z"/>
		<path class="st2" d="M37.34,258.68c1.69-4.25,3.31-8.43,5.03-12.57c0.45-1.09,1.71-0.9,2.66-1.06c0.42-0.07,0.36,0.51,0.36,0.86
			c-0.05,3.46-0.13,6.92-0.14,10.38c0,1.16-0.71,1.31-1.59,1.36c-1.19,0.07-0.78-0.73-0.74-1.34c0.03-0.39,0.18-0.97-0.4-0.94
			c-0.6,0.04-1.36-0.18-1.8,0.51c-0.11,0.17-0.25,0.35-0.27,0.54C40.23,258.12,39.23,258.82,37.34,258.68z M42.86,250.94
			c-0.42,0.62-0.88,1.23-0.73,2.16C43.33,252.61,42.87,251.68,42.86,250.94z"/>
		<path class="st2" d="M113.58,244.03c-1.03,0.19-1.59-0.45-1.77-1.67c-0.2-1.36,0.85-1.4,1.67-1.7c0.42-0.15,0.8-0.13,0.96,0.41
			c0.23,0.78,0.74,0.76,1.29,0.37c0.65-0.45,1.03-1.06,0.5-1.81c-0.28-0.4-0.72-0.71-1.15-0.98c-2.26-1.45-2.57-2.57-1.34-4.94
			c0.98-1.9,2.7-2.53,4.66-2.67c0.95-0.07,1.67,0.47,1.84,1.47c0.11,0.59,0.21,1.31-0.57,1.54c-0.74,0.21-1.57,0.87-2.24-0.24
			c-0.36-0.6-0.89-0.37-1.29,0c-0.46,0.43-0.86,0.96-0.37,1.59c0.31,0.39,0.69,0.78,1.12,1.01c2.91,1.55,2.48,3.77,0.62,6.05
			C116.64,243.54,115.3,244.02,113.58,244.03z"/>
		<path class="st2" d="M69.31,241.08c-0.8,3.86-1.56,7.57-2.34,11.28c-0.29,1.39-1.6,0.97-2.46,1.27c-0.36,0.12-0.35-0.37-0.28-0.67
			c0.86-3.8,1.74-7.59,2.58-11.39c0.28-1.29,1.42-0.95,2.21-1.15C69.47,240.3,69.29,240.92,69.31,241.08z"/>
		<path class="st2" d="M125.09,230.8c-0.45,2.16-0.94,4.65-1.48,7.12c-0.13,0.58-1.99,1.47-2.51,1.25
			c-0.39-0.17-0.26-0.47-0.19-0.77c0.57-2.52,1.11-5.04,1.71-7.56c0.27-1.15,1.36-1.08,2.2-1.19
			C125.32,229.58,125.19,230.13,125.09,230.8z"/>
		<path class="st2" d="M33.65,259.55c-0.78,0.34-0.81-0.23-0.64-0.94c0.53-2.36,1.12-4.7,1.61-7.07c0.27-1.31,1.29-1.23,2.21-1.35
			c0.46-0.06,0.46,0.26,0.39,0.59c-0.58,2.66-1.15,5.31-1.73,7.97C35.28,259.71,34.43,259.28,33.65,259.55z"/>
		<path class="st2" d="M120.17,242.72c0.13-1.45,0.32-2.69,2.07-2.88c0.62-0.07,0.93-0.24,0.81,0.65
			C122.78,242.53,122.7,242.64,120.17,242.72z"/>
		<path class="st2" d="M37.95,246.44c-0.37,2.74-0.37,2.74-2.69,2.93C35.03,247.16,35.41,246.75,37.95,246.44z"/>
		<path class="st2" d="M70.05,237.46c-0.3,0.58-0.53,1.08-0.82,1.54c-0.33,0.51-0.86,0.68-1.45,0.6c-0.35-0.04-0.34-0.31-0.29-0.57
			c0.12-0.58,0.1-1.27,0.87-1.42C68.89,237.52,69.43,237.52,70.05,237.46z"/>
		<path class="st2" d="M108.8,231.7c-0.43,0.08-0.7-0.02-0.73-0.6c-0.06-1.38,1.13-1.16,1.87-1.48c0.24-0.11,0.76,0.02,0.53,0.38
			C110.05,230.65,109.99,231.73,108.8,231.7z"/>
	</g>
	<g>
		<g>
			<path class="st0" d="M150.52,257.88c-0.4,0-0.84-0.09-1.16-0.47c-0.45-0.53-0.32-1.23-0.16-1.77c2.31-7.73,4.61-15.6,6.84-23.21
				c0.68-2.33,1.37-4.67,2.05-7c0.09-0.3,0.14-0.53,0.12-0.71c-0.65-0.9-1.49-1.7-2.55-2.45l-0.08-0.05l-0.11-0.12
				c-0.36-0.38-0.86-0.9-0.63-1.61c0.24-0.75,1.08-0.91,1.44-0.98c3.56-0.69,7.32-1.46,12.18-2.5c1.26-0.27,1.78,0.6,2,0.97
				c0.04,0.07,0.1,0.17,0.13,0.19l0.16,0.14l0.08,0.19c0.45,1.08,0.9,2.15,1.35,3.23c1.07,2.56,2.17,5.2,3.27,7.8
				c0.8-1.12,1.61-2.24,2.41-3.35c2.74-3.81,5.58-7.76,8.35-11.65c0.63-0.89,1.4-1.36,2.56-1.57c1.67-0.31,3.36-0.66,5-1.01
				c1.58-0.33,3.21-0.68,4.83-0.98c0.04-0.01,0.16-0.05,0.24-0.09c0.46-0.17,1.22-0.45,1.88,0.01c0.69,0.48,0.68,1.38,0.67,1.67
				l-0.01,0.09l-0.12,1.02l-0.08,0.16c-0.69,1.27-0.92,2.7-1.16,4.21c-0.12,0.77-0.25,1.57-0.44,2.36
				c-1.83,7.43-3.54,15.03-5.19,22.37l-0.57,2.56c-0.27,1.19-0.88,1.76-2.11,1.97c-2.35,0.4-7.2,1.55-7.69,1.7l-0.1,0.04l-0.14,0.01
				c-0.69,0.06-1.21-0.1-1.56-0.48c-0.52-0.57-0.38-1.31-0.29-1.8c0.01-0.06,0.02-0.12,0.03-0.17c0.43-2.62,0.92-5.39,1.5-8.47
				c0.05-0.3,0.22-1.27,0.39-2.34c-1.01,1.31-1.93,2.55-2.78,3.75c-0.68,0.96-1.4,1.9-2.09,2.8c-1.29,1.69-2.63,3.43-3.68,5.29
				l-0.23,0.41l-0.47,0.05c-0.42,0.05-0.78-0.04-2.17-1.54c-0.79-0.85-1.51-1.75-1.94-2.41c-0.96-1.47-1.89-2.98-2.8-4.44
				c-0.38-0.61-0.75-1.22-1.13-1.83c-0.06-0.08-0.12-0.16-0.18-0.26c-0.22,1.11-0.45,2.23-0.68,3.34
				c-0.71,3.52-1.45,7.16-2.14,10.75c-0.21,1.09-0.75,1.73-1.75,2.09c-2.5,0.89-5.03,1.81-7.49,2.7c-0.83,0.3-1.66,0.6-2.49,0.9
				l-0.51,0.4l-0.25,0.03C150.91,257.86,150.72,257.88,150.52,257.88z M157.27,221.18c1.04,0.8,1.88,1.67,2.55,2.64l0.08,0.12
				l0.04,0.14c0.22,0.76,0.02,1.48-0.1,1.86c-0.68,2.33-1.37,4.67-2.05,7c-2.19,7.47-4.45,15.19-6.71,22.79
				c0.87-0.32,1.74-0.63,2.62-0.95c2.45-0.89,4.99-1.81,7.49-2.71c0.37-0.13,0.48-0.23,0.57-0.71c0.69-3.6,1.43-7.24,2.14-10.77
				c0.29-1.41,0.57-2.83,0.86-4.24c0-0.01,0.01-0.05,0.01-0.09c0.09-1.1,0.82-1.3,1.25-1.33c0.85-0.05,1.34,0.78,1.75,1.44
				c0.07,0.11,0.16,0.27,0.2,0.32l0.06,0.06l0.05,0.08c0.39,0.63,0.78,1.26,1.17,1.89c0.9,1.45,1.83,2.96,2.77,4.41
				c0.55,0.84,1.56,1.99,2.23,2.67c1-1.62,2.15-3.12,3.27-4.58c0.69-0.89,1.39-1.82,2.05-2.75c1.42-2.01,3.03-4.12,4.93-6.46
				l1.77-2.18l-0.15,2.8c-0.05,1.03-0.79,5.36-0.87,5.81c-0.57,3.07-1.06,5.83-1.49,8.44c-0.01,0.07-0.02,0.14-0.04,0.21
				c0,0.02-0.01,0.05-0.02,0.08c1.33-0.35,5.71-1.36,7.69-1.69c0.52-0.09,0.53-0.12,0.63-0.56l0.57-2.56
				c1.65-7.36,3.36-14.96,5.2-22.41c0.18-0.71,0.29-1.44,0.41-2.21c0.24-1.54,0.49-3.13,1.27-4.64l0.06-0.56
				c-0.03,0.01-0.05,0.02-0.08,0.03c-0.18,0.07-0.36,0.13-0.55,0.17c-1.6,0.3-3.21,0.64-4.78,0.97c-1.65,0.35-3.35,0.71-5.05,1.02
				c-0.69,0.13-1.04,0.34-1.4,0.84c-2.77,3.89-5.61,7.84-8.36,11.65c-0.88,1.23-1.77,2.46-2.65,3.69c-0.02,0.04-0.04,0.08-0.07,0.12
				c-0.19,0.37-0.55,1.05-1.31,1.02c-0.79-0.03-1.12-0.82-1.25-1.11c-1.21-2.84-2.41-5.74-3.58-8.53c-0.43-1.02-0.85-2.04-1.28-3.07
				c-0.13-0.16-0.23-0.31-0.31-0.45c-0.02-0.03-0.05-0.08-0.07-0.11C164.25,219.78,160.65,220.52,157.27,221.18z M184.04,248.99
				L184.04,248.99C184.03,248.99,184.04,248.99,184.04,248.99z M174.85,246.36C174.85,246.36,174.85,246.36,174.85,246.36
				L174.85,246.36z M167.94,236.69L167.94,236.69C167.94,236.69,167.94,236.69,167.94,236.69z M175.84,230.46
				C175.84,230.46,175.84,230.46,175.84,230.46S175.84,230.46,175.84,230.46z"/>
			<path class="st0" d="M192.35,259.03c-0.34,0-0.63-0.1-0.86-0.31c-0.6-0.53-0.41-1.35-0.31-1.79l0.02-0.09l0.27-1.2
				c0.6-2.62,1.71-7.48,1.79-7.96l0-0.04l0.55-2.46l0.48-0.17c1.92-0.67,3.91-1.06,5.84-1.43c1.12-0.22,2.27-0.44,3.38-0.72
				c2.32-0.58,10.45-2.36,12.62-2.66c0.08-0.5,0.3-1.6,0.77-3.92c0.58-2.86,1.38-6.78,1.99-10.17c0.83-4.63,0.89-6.08,0.86-6.53
				c-0.53-0.42-1.01-0.88-1.51-1.37c-0.26-0.25-0.52-0.51-0.8-0.77l-1.03-0.95l1.29-0.56c1.43-0.62,2.8-0.84,4.12-1.06
				c0.52-0.08,1.02-0.16,1.51-0.27c0.98-0.21,1.98-0.4,2.95-0.59c1.04-0.2,2.11-0.41,3.15-0.63c0.46-0.1,1.12-0.18,1.64,0.27
				c0.37,0.33,0.53,0.82,0.48,1.47l-0.03,0.4l-0.14,0.11c-0.29,0.89-1.15,4.65-1.85,7.71c-0.56,2.43-1.13,4.94-1.57,6.69
				c-0.35,1.4-0.67,2.85-0.97,4.24c-0.68,3.09-1.39,6.29-2.48,9.36c-0.77,2.16-2.01,3.5-3.89,4.22c-4.4,1.69-8.83,3.46-12.97,5.13
				c-3.19,1.29-6.43,2.62-9.56,3.91c-1.39,0.57-2.78,1.14-4.17,1.71l-0.05,0.02l-0.67,0.23
				C192.88,258.97,192.6,259.03,192.35,259.03z M195.08,247.98c-0.08,0.49-0.53,2.49-1.81,8.08l-0.21,0.92l0.19-0.06
				c1.38-0.57,2.76-1.13,4.14-1.7c3.13-1.29,6.38-2.62,9.57-3.91c4.14-1.67,8.58-3.45,13-5.14c1.37-0.52,2.24-1.49,2.82-3.13
				c1.06-2.96,1.75-6.11,2.42-9.14c0.31-1.41,0.63-2.86,0.98-4.29c0.43-1.73,1-4.23,1.56-6.65c1.09-4.76,1.57-6.79,1.85-7.72
				c-0.99,0.21-1.99,0.4-2.97,0.59c-0.96,0.18-1.95,0.38-2.92,0.58c-0.53,0.11-1.07,0.2-1.59,0.28c-0.77,0.12-1.55,0.25-2.34,0.46
				c0.45,0.44,0.86,0.82,1.31,1.15c0.79,0.6,1.02,1.63-2.38,18.35c-0.38,1.88-0.74,3.66-0.77,3.93c-0.05,0.74-0.63,1.33-1.42,1.42
				c-1.7,0.2-9.97,2-12.56,2.64c-1.16,0.29-2.33,0.52-3.47,0.74c-1.7,0.33-3.45,0.67-5.11,1.2L195.08,247.98z M193.27,247.7
				C193.27,247.7,193.27,247.7,193.27,247.7L193.27,247.7z M219.75,219.44L219.75,219.44L219.75,219.44z"/>
			<path class="st0" d="M204.87,247.97l-7.79-6.83l0.09,0c-0.83-0.77-1.44-1.43-1.66-2.04l-0.09-0.26l0.35-1.45
				c0.21-0.88,0.43-1.76,0.64-2.64c0.69-2.92,1.39-5.83,2.08-8.75l0.92-3.86l0.03-0.07c1.12-2.57,3.51-3.33,5.2-3.68
				c1.42-0.29,2.86-0.56,4.26-0.82c1.82-0.34,3.71-0.69,5.54-1.09c1.28-0.28,3.13,0.71,3.49,0.91l0.11,0.06l1.87,1.88
				c0.48,0.48,0.59,0.6,0.59,0.97c0,0.26-0.09,0.73-0.63,3.12c-0.33,1.5-0.71,3.2-0.89,4.21c-0.25,1.42-0.95,2.11-1.72,2.48
				l0.24-0.05l0.21,0.86c0.04,0.18,0.13,0.55-0.68,2.59c-0.32,0.81-1,2.38-1.93,3.81c-1.23,1.9-2.52,2.99-3.84,3.24
				c-0.47,0.09-0.94,0.17-1.41,0.26c-1.25,0.22-2.53,0.45-3.77,0.75c-1.05,0.26-3.44,0.76-5.05,1.08L204.87,247.97z M197.33,238.67
				c0.35,0.5,1.38,1.4,1.85,1.82c0.25,0.22,0.44,0.39,0.59,0.53c1.15-0.21,4.3-0.85,5.88-1.23c1.29-0.31,2.6-0.55,3.88-0.77
				c0.47-0.08,0.93-0.17,1.4-0.25c0.98-0.18,2.2-1.5,3.33-3.61c0.55-1.03,0.98-2.05,1.27-2.82c-1.64,0.33-3.29,0.67-4.93,1
				c-0.03,0.04-0.05,0.09-0.06,0.12c-0.28,2.11-3.73,3.13-5.07,2.97c-0.95-0.11-1.31-0.78-1.25-1.35c0.1-0.89,0.28-1.76,0.45-2.6
				c0.04-0.2,0.08-0.4,0.12-0.6c0.22-1.09,1.17-1.27,1.64-1.36l0.01,0c1.18-0.23,2.35-0.46,3.53-0.69c1.77-0.35,3.6-0.71,5.41-1.05
				c1.28-0.24,1.62-0.42,1.81-1.45c0.19-1.05,0.57-2.77,0.91-4.29c0.2-0.89,0.42-1.87,0.52-2.4c-0.49-0.49-1.39-1.41-1.69-1.7
				c-0.73-0.39-1.74-0.74-2.11-0.66c-1.86,0.4-3.76,0.76-5.59,1.1c-1.39,0.26-2.82,0.53-4.23,0.82c-2.08,0.42-3.24,1.19-3.86,2.55
				l-0.88,3.69c-0.69,2.92-1.39,5.83-2.08,8.75c-0.21,0.88-0.42,1.77-0.64,2.65L197.33,238.67z M206.56,232.35
				c-0.03,0.16-0.07,0.33-0.1,0.49c-0.12,0.6-0.24,1.17-0.33,1.75c0.55-0.08,1.41-0.33,2.06-0.78c0.37-0.26,0.52-0.48,0.53-0.6
				c0.05-0.39,0.23-0.69,0.37-0.92c0.04-0.07,0.08-0.13,0.11-0.18l0.16-0.31c-0.85,0.17-1.71,0.33-2.56,0.5l-0.01,0
				C206.71,232.31,206.62,232.33,206.56,232.35z M210.52,233.46C210.52,233.46,210.52,233.46,210.52,233.46
				C210.52,233.46,210.52,233.46,210.52,233.46z M207.7,226.95c-0.44,0-0.79-0.1-1.09-0.36c-0.43-0.37-0.67-0.96-0.68-1.65
				c-0.01-0.87,0.35-1.75,0.93-2.28c0.35-0.32,0.61-0.37,1.57-0.57c0.21-0.04,0.47-0.1,0.79-0.16l0.3-0.06
				c1.28-0.27,1.86-0.39,2.51,0.06l0,0c0.46,0.32,0.77,0.83,0.91,1.52c0.08,0.36,0.16,1.06-0.18,1.73c-0.32,0.62-0.92,1.05-3.18,1.5
				C208.8,226.83,208.19,226.95,207.7,226.95z M207.83,225.22L207.83,225.22C207.83,225.22,207.83,225.22,207.83,225.22z
				 M208.07,224.04c-0.27,0.28-0.35,0.82-0.29,1.08c0.31-0.02,0.93-0.14,1.45-0.25c1.42-0.28,1.82-0.5,1.92-0.56
				c0.05-0.13,0.04-0.33,0.01-0.48c-0.05-0.23-0.11-0.33-0.14-0.38c-0.18,0.01-0.64,0.1-1.12,0.2l-0.3,0.06
				c-0.32,0.07-0.59,0.12-0.8,0.16C208.46,223.95,208.19,224,208.07,224.04z"/>
			<path class="st0" d="M232.13,236.36c-1.16,0-1.85-0.72-2.37-1.26c-0.27-0.28-0.52-0.54-0.77-0.64l-0.22-0.09l-0.15-0.19
				c-0.07-0.08-0.16-0.18-0.26-0.28c-0.31-0.31-0.73-0.74-0.86-1.41l-0.04-0.19l3.79-16.3l0.06-0.11c1.6-2.85,4.37-3.72,6.6-4.17
				c0.84-0.17,1.69-0.32,2.51-0.47c1.95-0.36,3.97-0.72,5.88-1.26c2.04-0.57,3.22,0.47,4.17,1.3c0.3,0.27,0.59,0.52,0.89,0.71
				l0.07,0.05l0.45,0.42l0.69-0.37l0.15,2.63l-0.03,0.13c-0.29,1.24-0.57,2.49-0.85,3.73c-0.66,2.89-1.35,5.88-2.03,8.82
				c-0.85,3.67-3.19,5.93-6.97,6.72c-2.41,0.51-4.86,1.03-7.23,1.54c-1.05,0.23-2.09,0.45-3.14,0.68l-0.06,0.01l-0.06,0
				C232.28,236.36,232.2,236.36,232.13,236.36z M229.9,232.87c0.49,0.25,0.85,0.63,1.18,0.97c0.49,0.51,0.72,0.71,1.09,0.7
				c1.02-0.22,2.05-0.44,3.07-0.66c2.37-0.51,4.82-1.04,7.24-1.54c3.06-0.64,4.88-2.39,5.57-5.34c0.68-2.94,1.36-5.93,2.03-8.82
				c0.27-1.2,0.55-2.4,0.83-3.6l-0.03-0.56l-0.54-0.51c-0.38-0.25-0.72-0.55-1.04-0.83c-0.91-0.8-1.43-1.2-2.48-0.92
				c-2,0.56-4.05,0.93-6.05,1.29c-0.82,0.15-1.66,0.3-2.49,0.47c-2.72,0.54-4.32,1.49-5.3,3.16l-3.62,15.59
				c0.06,0.1,0.17,0.21,0.31,0.35C229.73,232.7,229.82,232.78,229.9,232.87z M237.99,229.94c-0.67,0-1.29-0.11-1.65-0.43
				c-0.29-0.26-0.41-0.64-0.33-1.01c0.42-1.84,0.84-3.67,1.27-5.51c0.43-1.87,0.86-3.73,1.29-5.6c0.12-0.52,0.47-1.17,1.45-1.35
				c0.88-0.17,1.92-0.37,2.96-0.6c0.63-0.14,1.12-0.03,1.46,0.32c0.47,0.49,0.34,1.17,0.25,1.5c-0.04,0.3-0.19,1-0.74,3.39
				c-0.53,2.29-1.18,5.14-1.51,6.88l0,0c-0.12,0.64-0.59,1.52-2.15,2.05C239.75,229.76,238.83,229.94,237.99,229.94z M240.35,217.83
				c-0.42,1.85-0.85,3.71-1.28,5.56c-0.36,1.57-0.72,3.14-1.08,4.71c0.64,0,1.62-0.14,2.25-0.5c0.14-0.08,0.38-0.24,0.42-0.42l0,0
				c0.33-1.78,0.99-4.65,1.52-6.95c0.26-1.14,0.53-2.32,0.65-2.89c-0.87,0.18-1.72,0.35-2.46,0.49
				C240.36,217.83,240.35,217.83,240.35,217.83z"/>
			<path class="st0" d="M250.65,232.52c-0.37,0-0.88-0.08-1.23-0.47c-0.48-0.53-0.34-1.19-0.26-1.59c0.02-0.09,0.04-0.21,0.05-0.27
				l-0.02-0.16l0.04-0.17c0.11-0.43,0.21-0.87,0.32-1.3c0.22-0.87,0.44-1.78,0.64-2.67c0.6-2.66,1.2-5.37,1.78-7.98
				c0.23-1.04,0.46-2.09,0.7-3.13c-0.17-0.61-1.27-2.43-1.98-2.87l-0.11-0.07l-0.09-0.1c-0.35-0.4-0.89-1.01-0.63-1.75
				c0.27-0.77,1.17-0.93,1.6-1.01c6.73-1.22,12.69-2.39,18.24-3.57c1.27-0.27,2.02,0.27,2.56,0.67c0.09,0.06,0.17,0.13,0.27,0.19
				l0.11,0.07l0.08,0.1c0.43,0.52,1.47,1.42,1.96,1.82l0.33,0.27l0,0.39l0.09,1.18l-0.05,0.16c-0.09,0.32-0.19,0.64-0.29,0.95
				c-0.22,0.69-0.43,1.35-0.53,2.01c-0.19,1.24-0.82,1.86-2.1,2.05c-1.51,0.23-5.04,1.14-5.39,1.26l-0.17,0.06l-0.17-0.01
				c-0.43-0.02-1.22-0.06-1.62-0.72c-0.27-0.43-0.26-0.97,0.02-1.6c0.11-0.26,0.27-0.85,0.32-1.26c-0.25,0.03-0.51,0.05-0.75,0.07
				c-1.1,0.07-1.4,0.16-1.56,0.76c-0.56,2.09-1.03,4.25-1.48,6.34c-0.09,0.4-0.17,0.79-0.26,1.19l0.72-0.16l0.2,0.06
				c0.05,0,0.17,0,0.25-0.01c0.37-0.03,1-0.07,1.47,0.4c0.49,0.49,0.45,1.19,0.43,1.42l0,0.05l-0.01,0.05
				c-0.05,0.3-0.67,2.03-1.62,3.7c-1.38,2.42-2.93,3.83-4.58,4.16c-1.44,0.29-2.89,0.61-4.3,0.92c-0.64,0.14-1.28,0.28-1.92,0.42
				l-0.04,0.01l-0.63,0.11C250.94,232.51,250.81,232.52,250.65,232.52z M251.03,230.17c0,0.17-0.02,0.33-0.05,0.48l0.33-0.06
				c0.63-0.14,1.27-0.28,1.9-0.41c1.42-0.31,2.88-0.63,4.33-0.93c2.35-0.48,4.22-4.84,4.69-6.16c-0.14,0.01-0.3,0.01-0.47-0.01
				l-0.14,0.03c-0.02,0.01-0.04,0.02-0.05,0.03c-0.36,0.21-1.11,0.65-1.88,0.14c-0.88-0.58-0.61-1.56-0.51-1.93
				c0.01-0.05,0.03-0.1,0.04-0.15c0.1-0.47,0.2-0.94,0.3-1.4c0.46-2.11,0.93-4.3,1.5-6.43c0.52-1.93,2.2-2.04,3.21-2.11
				c0.32-0.02,0.63-0.04,0.88-0.1c0.58-0.14,1.12,0.02,1.46,0.43c0.69,0.83,0.25,2.43,0.01,3.11c1.11-0.3,3.9-1,5.27-1.21
				c0.5-0.08,0.5-0.08,0.57-0.52c0.12-0.8,0.36-1.55,0.6-2.28c0.08-0.26,0.16-0.5,0.23-0.74l-0.04-0.5
				c-0.47-0.4-1.31-1.14-1.82-1.72c-0.07-0.05-0.15-0.1-0.21-0.15c-0.46-0.33-0.63-0.46-1.1-0.36c-5.47,1.17-11.35,2.32-17.95,3.52
				c1.09,0.99,2.22,2.98,2.37,3.86c0.05,0.29,0.01,0.51-0.06,0.68c-0.23,1.02-0.45,2.04-0.68,3.05c-0.58,2.62-1.18,5.33-1.78,7.99
				c-0.2,0.91-0.43,1.82-0.65,2.7C251.22,229.4,251.13,229.78,251.03,230.17z"/>
			<path class="st0" d="M215.41,215.03c-0.01,0-0.02,0-0.02,0l-0.37-0.02l-0.25-0.27c-0.62-0.67-1.96-3.4-1.85-4.46l0.01-0.06
				l0.01-0.06c0.19-0.82,0.39-1.65,0.58-2.47c0.44-1.85,0.89-3.76,1.28-5.64c0.58-2.78,2.36-4.57,5.14-5.17
				c2.04-0.44,4.13-0.81,6.14-1.17c1.57-0.28,3.19-0.56,4.77-0.88c0.42-0.09,1.04-0.15,1.51,0.26c0.49,0.43,0.45,1.03,0.42,1.43
				c0,0.04-0.01,0.09-0.01,0.14l-0.03,0.52l-0.22,0.11c-0.26,0.74-0.79,3.23-1.15,4.92c-0.2,0.94-0.39,1.84-0.56,2.57
				c0.07,0.01,0.13,0.01,0.19,0l0.13-0.14l0.42,0.02c0.07,0,0.17,0,0.28-0.01c0.43-0.02,1.07-0.05,1.55,0.45
				c0.33,0.34,0.46,0.82,0.41,1.44l-0.01,0.15l-0.38,0.88c-0.61,2.39-1.94,4.02-4.05,4.98c-0.19,0.09-0.77,0.35-7.2,1.44
				C222.09,214.01,216.08,215.03,215.41,215.03z M214.75,210.48c0.05,0.48,0.68,1.94,1.12,2.67c2.31-0.31,11.83-1.9,12.73-2.27
				c1.61-0.73,2.57-1.95,3.04-3.83l0.02-0.08l0.21-0.48c-0.05,0-0.09,0-0.14,0.01c-0.64,0.24-1.55,0.1-2.04-0.16
				c-0.61-0.33-0.89-0.94-0.74-1.58c0.18-0.76,0.4-1.81,0.64-2.92c0.62-2.93,0.95-4.37,1.21-5.12c-1.47,0.29-2.96,0.55-4.41,0.81
				c-2,0.35-4.06,0.72-6.07,1.15c-2.06,0.45-3.31,1.71-3.74,3.76c-0.4,1.91-0.85,3.83-1.29,5.69
				C215.11,208.91,214.93,209.7,214.75,210.48z M220.87,210.02c-0.49,0-0.87-0.13-1.14-0.39c-0.31-0.3-0.43-0.73-0.32-1.17
				c0.37-1.44,0.7-2.93,1.03-4.37c0.16-0.73,0.34-1.49,0.51-2.24c0.28-1.19,2.43-1.82,2.68-1.89c0.94-0.26,1.59-0.19,1.99,0.23
				c0.63,0.65,0.37,1.41,0.25,1.74c-0.02,0.06-0.05,0.14-0.05,0.17l-0.01,0.08l-0.21,0.6l-0.31,1.44c-0.27,1.27-0.55,2.54-0.83,3.81
				c-0.21,0.98-1.51,1.52-2.26,1.75C221.69,209.94,221.25,210.02,220.87,210.02z M222.7,202.41c-0.16,0.7-0.32,1.41-0.48,2.09
				c-0.27,1.19-0.54,2.41-0.84,3.62c0.5-0.12,1.1-0.37,1.31-0.57c0.27-1.23,0.54-2.47,0.8-3.7l0.33-1.55l0.19-0.53
				C223.53,201.92,222.92,202.2,222.7,202.41z M222.73,207.51L222.73,207.51L222.73,207.51z M222.65,202.46L222.65,202.46
				L222.65,202.46z"/>
			<path class="st0" d="M203.38,217.38c-0.34,0-0.64-0.1-0.87-0.31c-0.59-0.52-0.42-1.32-0.33-1.76l0.01-0.03
				c0.45-2.21,0.93-4.44,1.4-6.61c0.18-0.82,0.35-1.64,0.53-2.47c0.23-1.09,0.46-2.21,0.69-3.28c0.55-2.63,1.11-5.36,1.75-8.02
				c0.18-0.76-0.11-1.1-0.8-1.79c-0.15-0.15-0.3-0.31-0.46-0.48c-0.03-0.03-0.1-0.09-0.15-0.13c-0.29-0.24-1.07-0.9-0.63-1.93
				c0.38-0.89,1.27-0.87,1.6-0.86c0.06,0,0.15,0,0.18,0c0.65-0.12,1.3-0.24,1.96-0.37c1.85-0.35,3.76-0.7,5.64-1.08
				c0.05-0.01,0.1-0.02,0.15-0.03c0.38-0.08,0.96-0.21,1.46,0.18c0.34,0.26,0.52,0.68,0.54,1.25l0,0.12l-0.03,0.12
				c-0.18,0.75-0.37,1.5-0.56,2.25c-0.41,1.66-0.83,3.37-1.24,5.06c-0.9,3.71-1.82,7.54-2.71,11.32c0.2,0.02,0.43,0.02,0.57,0
				l0.28-0.04l0.25,0.13c1.07,0.54,0.86,1.62,0.79,1.97l-0.07,0.34l-0.18,0.14c-0.06,0.09-0.17,0.27-0.26,0.43
				c-0.88,1.49-2.72,4.6-5.13,5.02c-0.66,0.12-1.33,0.26-1.97,0.4c-0.31,0.07-0.61,0.13-0.92,0.2l-0.04,0.01l-0.76,0.13
				C203.8,217.35,203.58,217.38,203.38,217.38z M206.72,191.49c0.1,0.11,0.21,0.22,0.32,0.34c0.72,0.73,1.69,1.72,1.27,3.5
				c-0.63,2.64-1.19,5.35-1.74,7.97c-0.22,1.08-0.46,2.19-0.69,3.29c-0.18,0.82-0.35,1.65-0.53,2.47c-0.45,2.09-0.91,4.24-1.35,6.36
				l0.48-0.08c0.3-0.06,0.59-0.13,0.89-0.19c0.67-0.14,1.35-0.29,2.04-0.42c1.58-0.28,3.25-3.09,3.88-4.15
				c0.05-0.08,0.09-0.15,0.13-0.21c-0.52-0.04-1.14-0.18-1.52-0.6c-0.29-0.32-0.4-0.76-0.3-1.2c0.92-3.94,1.88-7.92,2.81-11.78
				c0.41-1.69,0.83-3.41,1.24-5.07c0.13-0.54,0.27-1.08,0.4-1.62c-1.83,0.37-3.69,0.71-5.49,1.05
				C207.96,191.26,207.34,191.38,206.72,191.49z"/>
		</g>
		<g>
			<path class="st3" d="M172.86,229.73c3.68-5.12,7.38-10.24,11.04-15.38c0.51-0.72,1.09-1.04,1.98-1.2
				c3.29-0.6,6.54-1.38,9.82-1.99c0.56-0.1,1.73-0.96,1.72,0.69c-0.03,0.28-0.06,0.56-0.1,0.85c-1.15,2.11-1.12,4.53-1.68,6.79
				c-2.04,8.29-3.89,16.62-5.77,24.95c-0.19,0.85-0.53,1.12-1.37,1.26c-2.4,0.41-7.63,1.65-7.86,1.75c-1.24,0.11-0.94-0.77-0.83-1.4
				c0.47-2.82,0.97-5.64,1.49-8.46c0.09-0.5,0.81-4.74,0.86-5.69c-1.71,2.1-3.35,4.22-4.9,6.41c-1.93,2.73-4.17,5.24-5.82,8.17
				c-0.28,0.03-2.37-2.19-3.25-3.54c-1.36-2.08-2.64-4.21-3.96-6.32c-0.25-0.26-0.79-1.5-1.23-1.47c-0.44,0.02-0.35,0.4-0.41,0.68
				c-1.01,5-2.04,9.99-3,15c-0.15,0.77-0.47,1.15-1.16,1.4c-3.38,1.21-6.75,2.44-10.12,3.66c-0.14,0.11-0.28,0.22-0.42,0.33
				c-0.81,0.1-1.2,0.05-0.88-1.03c3-10.06,5.94-20.14,8.89-30.21c0.13-0.44,0.23-0.88,0.1-1.34c-0.78-1.13-1.77-2.04-2.88-2.83
				c-0.48-0.51-0.89-0.89,0.27-1.11c4.08-0.78,8.14-1.63,12.2-2.5c0.89-0.19,0.92,0.59,1.33,0.95c1.64,3.92,3.26,7.85,4.92,11.75
				C172.32,231,172.59,230.2,172.86,229.73z"/>
			<path class="st3" d="M189.83,257.29c-1.17,0.43-0.9-0.43-0.78-0.95c0.64-2.8,2.05-8.96,2.08-9.26c0.14-0.63,0.28-1.27,0.42-1.9
				c2.97-1.04,6.1-1.37,9.14-2.12c2.44-0.61,10.88-2.45,12.67-2.66c0.33-0.04,0.59-0.25,0.61-0.58c0.07-1.05,4.49-20.76,3.52-21.49
				c-0.84-0.63-1.56-1.41-2.47-2.26c1.88-0.81,3.7-0.9,5.45-1.27c2.03-0.43,4.07-0.78,6.1-1.22c0.72-0.15,1.07-0.01,1.01,0.77
				c-0.29,0.22-2.42,10.15-3.56,14.76c-1.12,4.51-1.86,9.12-3.43,13.52c-0.61,1.71-1.58,2.99-3.36,3.68
				c-4.35,1.66-8.67,3.39-12.98,5.13c-4.59,1.85-9.16,3.74-13.74,5.62C190.29,257.14,190.06,257.21,189.83,257.29z"/>
			<path class="st3" d="M197.22,221.72c0.87-1.99,2.61-2.75,4.55-3.15c3.26-0.67,6.55-1.21,9.81-1.92c1-0.22,2.85,0.82,2.85,0.82
				s2.11,2.12,2.11,2.12c0.02,0.35-1.14,5.11-1.51,7.16c-0.3,1.68-1.25,1.95-2.54,2.19c-2.98,0.56-5.96,1.16-8.93,1.74
				c-0.42,0.08-0.83,0.15-0.93,0.64c-0.21,1.04-0.44,2.08-0.56,3.13c-0.11,0.92,4.3-0.11,4.5-1.86c0.03-0.28,0.25-0.53,0.38-0.8
				c2.27-0.46,4.54-0.92,6.82-1.38c0.09,0.38-2.5,7.92-5.73,8.52c-1.74,0.33-3.5,0.6-5.22,1.02c-1.91,0.46-6.2,1.32-6.42,1.33
				c0,0,0.02,0.02,0.02,0.02c-0.33-0.46-2.76-2.27-3.1-3.23c0.31-1.28,0.62-2.55,0.92-3.83
				C195.23,230.07,196.23,225.89,197.22,221.72z M208.47,221.97c-0.35-0.24-0.7-0.14-2.1,0.15c-1.63,0.34-1.73,0.32-1.93,0.51
				c-0.71,0.65-0.86,2.06-0.27,2.57c0.28,0.25,0.93,0.13,2.2-0.13c2.13-0.42,2.42-0.77,2.54-1.02c0.22-0.44,0.14-0.94,0.1-1.12
				C208.97,222.75,208.86,222.24,208.47,221.97z"/>
			<path class="st3" d="M229.06,215.63c1.31-2.34,3.52-3.23,5.98-3.72c2.83-0.56,5.7-0.98,8.47-1.75c2.13-0.59,2.99,1.05,4.32,1.9
				c0.29,0.27,0.57,0.54,0.86,0.81c0,0,0.01,0.01,0.01,0.01c0.02,0.35,0.04,0.7,0.06,1.05c-0.96,4.18-1.91,8.37-2.88,12.55
				c-0.78,3.37-2.91,5.32-6.27,6.03c-3.46,0.73-6.91,1.48-10.37,2.22c-1.43,0.12-1.87-1.38-2.96-1.83
				c-0.33-0.42-0.82-0.72-0.93-1.29C226.59,226.28,227.82,220.95,229.06,215.63z M238.5,226.64c0.59-3.16,2.26-9.96,2.25-10.26
				c0.14-0.53,0.15-0.93-0.61-0.76c-0.99,0.22-1.99,0.41-2.99,0.6c-0.39,0.07-0.64,0.25-0.73,0.66c-0.85,3.7-1.71,7.4-2.56,11.11
				C233.73,228.58,238.15,228.47,238.5,226.64z"/>
			<path class="st3" d="M250.51,214.25c0.28-0.35-1.29-3.14-2.39-3.82c-0.6-0.69-0.79-1.03,0.45-1.25c6.1-1.11,12.2-2.29,18.27-3.58
				c1.04-0.22,1.49,0.29,2.12,0.72c0.62,0.74,2.08,1.95,2.08,1.95c0.03,0.35,0.05,0.7,0.08,1.05c-0.29,1.02-0.69,2.03-0.85,3.07
				c-0.13,0.87-0.48,1.16-1.33,1.29c-1.59,0.24-5.28,1.2-5.55,1.3c-0.67-0.03-1.22-0.13-0.82-1.04c0.13-0.3,1-2.9-0.3-2.59
				c-1.24,0.29-2.94-0.2-3.41,1.56c-0.69,2.57-1.23,5.19-1.79,7.8c-0.08,0.36-0.31,0.86,0.09,1.13c0.36,0.24,0.75-0.09,1.1-0.27
				c0.15-0.03,0.3-0.07,0.45-0.1c0.57,0.16,1.56-0.41,1.47,0.86c-0.05,0.27-2.17,6.46-5.49,7.13c-2.08,0.42-4.16,0.89-6.24,1.34
				c-0.19,0.03-0.38,0.07-0.57,0.1c-1.51,0.16-0.73-0.9-0.81-1.5c0.32-1.32,0.66-2.65,0.96-3.98
				C248.86,221.68,249.68,217.97,250.51,214.25z"/>
			<path class="st3" d="M228.48,204.88c0.63,0.03,1.47-0.27,1.36,0.88c-0.12,0.27-0.24,0.54-0.35,0.81
				c-0.5,2.03-1.58,3.55-3.56,4.45c-0.99,0.45-13.1,2.42-13.53,2.39c-0.56-0.6-1.68-3.08-1.61-3.74c0.63-2.71,1.3-5.41,1.86-8.13
				c0.52-2.49,2.09-3.95,4.44-4.46c3.61-0.78,7.27-1.32,10.9-2.04c0.99-0.2,0.87,0.3,0.83,0.88c-0.36,0.19-1.43,5.85-2.02,8.35
				C226.6,205.08,228.26,205.1,228.48,204.88z M221.66,201.84c0.07-0.19,0.13-0.38,0.2-0.57c0.06-0.38,0.38-0.79,0.05-1.13
				c-0.42-0.43-2.97,0.58-3.12,1.23c-0.51,2.21-0.98,4.43-1.54,6.62c-0.25,0.97,3.08,0.03,3.27-0.85
				C220.9,205.37,221.28,203.6,221.66,201.84z"/>
			<path class="st3" d="M209.13,208.74c0.44,0.22,0.38,0.6,0.3,0.98c-0.29,0.23-2.38,4.77-4.91,5.21c-0.98,0.17-1.95,0.4-2.92,0.61
				c-0.28,0.05-0.55,0.09-0.83,0.14c-1.04,0.35-0.86-0.4-0.76-0.92c0.62-3.03,1.28-6.04,1.92-9.07c0.8-3.76,1.54-7.54,2.44-11.28
				c0.37-1.55-0.67-2.2-1.46-3.09c-0.28-0.32-0.86-0.55-0.63-1.1c0.19-0.45,0.72-0.24,1.1-0.31c2.54-0.48,5.08-0.94,7.61-1.45
				c0.55-0.11,1.02-0.31,1.05,0.52c-0.6,2.44-1.21,4.87-1.8,7.31c-0.95,3.92-1.9,7.84-2.81,11.77
				C207.26,208.84,208.89,208.77,209.13,208.74z"/>
		</g>
	</g>
</g>
</svg>
