<?xml version="1.0" encoding="utf-8"?>
<!-- Generator: Adobe Illustrator 23.0.0, SVG Export Plug-In . SVG Version: 6.00 Build 0)  -->
<svg version="1.1" id="Capa_1" xmlns="http://www.w3.org/2000/svg" xmlns:xlink="http://www.w3.org/1999/xlink" x="0px" y="0px"
	 viewBox="0 0 300 300" style="enable-background:new 0 0 300 300;" xml:space="preserve">
<style type="text/css">
	.st0{fill:#024FB7;}
	.st1{fill:#034FB7;}
	.st2{fill:#0350B7;}
	.st3{fill:#857A6F;}
	.st4{fill:#857B6F;}
	.st5{fill:#867B70;}
	.st6{fill:#867B6F;}
	.st7{fill:#0551B8;}
	.st8{fill:#0451B7;}
	.st9{fill:#0D57BA;}
	.st10{fill:#1059BB;}
</style>
<g>
	<path class="st0" d="M252.36,108.64c-4.45-2.38-9.32-2.7-14.19-2.71c-60.91-0.06-121.83-0.07-182.74-0.09
		c-9.32,0-17.19-6.76-18.75-16.19c3.83,3.57,8.55,4.05,13.35,4.05c47.23,0.02,94.47,0.01,141.7,0.01c15.63,0,31.27,0.01,46.9-0.01
		c1.88,0,3.65,0.39,5.21,1.37c5.02,3.14,7.45,7.94,8.49,13.58L252.36,108.64z"/>
	<path class="st0" d="M252.86,123.89c-3.24-1.51-6.45-1.47-9.61-1.47c-62.55-0.03-125.11-0.06-187.66,0.04
		c-6.01,0.01-10.33-2.54-13.83-7.02c-2.54-3.26-3.9-7.09-5.13-11.38c5.96,5.85,13.24,6.2,20.57,6.2c58.58,0.02,117.16,0,175.73,0.03
		c6.26,0,12.01,1.48,16.36,6.41C251.04,118.68,252.18,120.99,252.86,123.89z"/>
	<path class="st0" d="M231.66,126.57c5.34,0,10.03-0.04,14.72,0.02c2.71,0.04,4.06,1.71,3.71,4.54c-0.9,7.22-3.18,14.06-6.15,20.66
		c-10.04,22.29-26,38.99-47.65,50.31c-15.37,8.03-31.63,12.8-48.96,13.92c-1.49,0.1-2.02-0.22-1.96-1.82
		c0.12-3.71,0.11-7.43,0-11.14c-0.05-1.51,0.4-2.03,1.91-2.09c12.45-0.46,24.27-3.61,35.56-8.74c20.53-9.32,35.35-24.65,46.04-44.22
		c2.69-4.92,5.07-9.96,5.45-15.71C234.48,130.09,234.08,128.2,231.66,126.57z"/>
	<path class="st0" d="M59.2,89.54c-5.41,0-10.21,0.07-15.02-0.03c-2.44-0.05-3.68-1.7-3.39-4.47c0.5-4.74,1.79-9.32,3.42-13.79
		c9.11-24.98,25.43-43.74,48.78-56.42c15.6-8.47,32.19-13.53,49.93-14.75c2.63-0.18,2.63-0.22,2.63,2.4c0,3.32-0.13,6.65,0.05,9.97
		c0.1,1.9-0.41,2.54-2.37,2.62c-10.83,0.44-21.21,2.98-31.24,7.03c-22.4,9.05-38.6,24.88-50,45.91c-2.58,4.76-4.85,9.64-5.41,15.14
		C56.34,85.54,56.52,87.71,59.2,89.54z"/>
	<path class="st0" d="M212.86,126.58c4.48,0,8.58-0.08,12.67,0.03c3.49,0.09,5.39,3.32,4.26,7.14
		c-3.09,10.42-8.31,19.72-14.94,28.27c-15.44,19.91-36.09,30.64-60.65,34.49c-2.43,0.38-4.93,0.36-7.39,0.58
		c-1.13,0.1-1.45-0.33-1.43-1.43c0.05-4.17,0.05-8.33,0-12.5c-0.01-1.05,0.23-1.45,1.39-1.48c17.71-0.58,32.87-7.61,46.31-18.68
		c9.28-7.65,16.46-16.95,20.78-28.31C214.92,131.9,215.24,129.29,212.86,126.58z"/>
	<path class="st0" d="M77.97,89.56c-4.11,0-7.89,0.01-11.67,0c-4.19-0.02-6.4-2.98-5.21-7.08c2.47-8.51,6.45-16.3,11.43-23.59
		c15.31-22.41,36.78-34.9,63.29-39.24c2.69-0.44,5.44-0.49,8.16-0.74c1.1-0.1,1.64,0.16,1.61,1.47c-0.08,4.23-0.06,8.47-0.01,12.7
		c0.01,1.05-0.34,1.32-1.34,1.31c-21.16-0.29-51.08,14.99-64.31,40.51c-1.23,2.37-2.19,4.85-3.16,7.34
		C75.75,84.83,76.06,87.14,77.97,89.56z"/>
	<path class="st1" d="M193.86,126.57c4.43,0,8.4-0.01,12.37,0c1.87,0.01,2.85,1.06,3.18,2.81c0.46,2.46-0.16,4.79-1.02,7.05
		c-1.78,4.67-4.67,8.67-7.67,12.63c-12.92,17.04-30.5,25.61-51.32,28.31c-3.99,0.52-4,0.48-4-3.62c0-3.52,0.04-7.04-0.02-10.55
		c-0.02-1.09,0.31-1.44,1.43-1.47c14.23-0.35,26.48-5.52,36.66-15.45c4.45-4.34,8.15-9.29,10.89-14.91
		C195.09,129.87,195.6,128.31,193.86,126.57z"/>
	<path class="st0" d="M96.77,89.55c-4.19,0-8.16,0.04-12.13-0.02c-1.9-0.03-2.99-1.22-3.17-3.27c-0.23-2.53,0.43-4.91,1.36-7.22
		c1.82-4.51,4.63-8.41,7.56-12.24c13.51-17.66,31.82-26.2,53.52-28.4c1.35-0.14,1.68,0.22,1.66,1.52c-0.07,4.1-0.12,8.21,0.02,12.31
		c0.06,1.77-0.71,1.99-2.16,2.03c-10.48,0.29-20.06,3.4-28.67,9.41c-7.66,5.36-13.63,12.23-17.97,20.5
		C95.9,85.89,95.3,87.63,96.77,89.55z"/>
	<path class="st0" d="M119.56,89.56c-4.79,0-9.15,0-13.51,0c-4.01,0-5.47-2.32-3.7-6.01c2.49-5.16,5.85-9.69,10.15-13.49
		c8.99-7.96,19.68-11.65,31.51-12.46c1.16-0.08,1.6,0.26,1.57,1.51c-0.08,3.84-0.07,7.69,0,11.53c0.02,1.19-0.26,1.65-1.54,1.8
		c-5.78,0.66-11.42,1.87-16.63,4.6c-3.22,1.69-6.08,3.79-7.76,7.15C118.81,85.87,118.13,87.55,119.56,89.56z"/>
	<path class="st2" d="M171.48,126.58c5.11,0,10.04-0.04,14.98,0.02c1.7,0.02,2.56,1.14,2.74,2.75c0.14,1.26-0.25,2.43-0.83,3.56
		c-6.48,12.7-16.99,20.22-30.54,23.81c-3.59,0.95-7.25,1.52-10.97,1.67c-1.06,0.04-1.5-0.23-1.48-1.39c0.06-3.91,0.05-7.81,0-11.72
		c-0.01-1.03,0.24-1.43,1.36-1.57c5.44-0.65,10.79-1.73,15.77-4.14c3.81-1.85,7.19-4.2,9.05-8.22
		C172.27,129.8,172.62,128.28,171.48,126.58z"/>
	<path class="st3" d="M92.71,249.07c-2.87,0-5.73,0.03-8.6-0.01c-1.16-0.02-1.43,0.34-1.19,1.51c0.54,2.65,1.78,4.68,4.53,5.28
		c2.62,0.57,5.09,0.33,6.65-2.33c0.21-0.36,0.47-0.59,0.92-0.59c2.15,0.01,4.3-0.04,6.45,0.02c1.35,0.03,0.55,0.92,0.37,1.36
		c-1.77,4.53-5.15,7.15-9.92,7.79c-5.41,0.72-10.51-0.03-14.05-4.74c-4-5.31-3.98-15.37-0.01-20.68c3.66-4.89,8.87-5.63,14.39-4.65
		c5.76,1.03,8.75,4.97,9.9,10.49c0.35,1.66,0.45,3.35,0.49,5.05c0.03,1.19-0.31,1.59-1.53,1.55
		C98.31,249.01,95.51,249.07,92.71,249.07z M88.77,243.99c1.43,0,2.86-0.07,4.28,0.02c1.27,0.08,1.62-0.37,1.32-1.58
		c-0.66-2.69-3.01-4.45-5.91-4.36c-2.69,0.09-4.94,2.12-5.36,4.77c-0.13,0.85,0.11,1.18,0.99,1.16
		C85.66,243.95,87.22,243.98,88.77,243.99z"/>
	<path class="st3" d="M140.55,249.07c-2.8,0-5.6,0.07-8.4-0.03c-1.42-0.05-1.64,0.51-1.44,1.74c0.42,2.6,2,4.58,4.47,5.09
		c2.54,0.52,4.96,0.32,6.57-2.15c0.24-0.37,0.4-0.8,0.99-0.79c2.15,0.02,4.3-0.03,6.45,0.02c1.29,0.03,0.61,0.87,0.41,1.37
		c-1.67,4.3-4.82,6.93-9.34,7.67c-5.59,0.91-10.89,0.31-14.62-4.61c-4.07-5.35-3.94-15.67,0.15-21c2.88-3.75,6.94-4.79,11.43-4.68
		c10.14,0.25,13.37,8.27,13.15,16.35c-0.03,1.11-0.7,1.04-1.43,1.04C146.15,249.07,143.35,249.07,140.55,249.07z M136.59,243.99
		c1.56,0,3.12-0.04,4.68,0.01c1.04,0.03,1.14-0.36,0.93-1.29c-0.66-2.88-2.75-4.64-5.67-4.65c-2.95-0.01-4.92,1.68-5.62,4.67
		c-0.23,0.98,0.01,1.29,0.99,1.26C133.47,243.95,135.03,243.99,136.59,243.99z"/>
	<path class="st3" d="M219.9,249.07c-2.8,0-5.6,0.06-8.4-0.03c-1.32-0.04-1.58,0.5-1.34,1.62c0.54,2.51,1.7,4.46,4.41,5.16
		c2.82,0.73,4.94,0.08,6.72-2.2c0.23-0.3,0.32-0.7,0.82-0.7c2.21,0.01,4.43-0.1,6.64,0.05c1.11,0.08,0.47,0.98,0.27,1.48
		c-1.81,4.54-5.3,7.07-10.01,7.67c-4.93,0.63-9.64-0.05-13.28-3.99c-0.26-0.29-0.52-0.58-0.75-0.9c-3.73-5.22-3.73-15.43,0.08-20.54
		c3.66-4.9,8.85-5.66,14.36-4.72c5.37,0.92,8.48,4.48,9.79,9.67c0.5,1.96,0.54,3.99,0.71,5.99c0.1,1.1-0.33,1.48-1.44,1.45
		C225.63,249.03,222.76,249.07,219.9,249.07z M216.09,243.99c1.56,0,3.12-0.03,4.68,0.01c0.85,0.02,1.15-0.22,0.97-1.14
		c-0.52-2.66-2.59-4.62-5.18-4.79c-3.05-0.2-5.14,1.26-6.02,4.14c-0.37,1.21-0.37,1.96,1.27,1.81
		C213.23,243.88,214.66,243.99,216.09,243.99z"/>
	<path class="st4" d="M152.95,247.41c0-6.64,2.06-11.71,7.85-14.26c5.86-2.59,11.74-2.19,16.93,1.91c3.58,2.83,4.81,6.91,4.91,11.27
		c0.13,5.63-1.37,10.71-6.55,13.74c-5.48,3.21-11.25,3.2-16.72-0.02C154.45,257.14,152.88,252.33,152.95,247.41z M174.62,247.59
		c-0.04-1.74-0.05-2.9-0.35-4.06c-0.93-3.49-3.15-5.36-6.5-5.39c-3.41-0.03-5.71,1.9-6.57,5.52c-0.59,2.46-0.55,4.92,0.15,7.34
		c0.9,3.13,3.09,4.71,6.35,4.72c3.31,0.01,5.43-1.53,6.41-4.65C174.53,249.75,174.66,248.39,174.62,247.59z"/>
	<path class="st5" d="M243.6,253.73c1.19-4.25,2.24-7.97,3.28-11.7c0.77-2.75,1.59-5.49,2.28-8.27c0.27-1.09,0.77-1.5,1.88-1.44
		c1.62,0.08,3.26,0.08,4.88,0c1.46-0.07,1.81,0.33,1.28,1.78c-2,5.49-3.88,11.03-5.82,16.55c-1.85,5.27-3.66,10.56-5.58,15.8
		c-2.51,6.84-4.93,7.24-11.81,6.57c-2.33-0.23-0.56-3.19-1.02-4.84c-0.3-1.1,0.5-1.19,1.4-1.21c3.18-0.06,4.19-0.85,4.9-3.37
		c0.26-0.94-0.1-1.66-0.37-2.43c-3.15-8.95-6.3-17.9-9.52-26.81c-0.58-1.61-0.4-2.2,1.43-2.04c1.55,0.13,3.13,0.12,4.68,0
		c1.41-0.1,2.05,0.39,2.43,1.79C239.7,240.48,241.59,246.83,243.6,253.73z"/>
	<path class="st6" d="M34.72,252.14c0.52,0,1.04,0.03,1.56-0.01c1.37-0.11,2.54-0.07,2.75,1.77c0.09,0.75,0.8,1.34,1.54,1.66
		c2.29,1,4.65,1.21,7.04,0.41c1.12-0.38,1.96-1.16,2.06-2.37c0.11-1.28-0.95-1.77-1.92-2.17c-2.12-0.88-4.43-1.02-6.62-1.61
		c-1.25-0.34-2.53-0.63-3.74-1.08c-3.03-1.14-5.39-2.94-5.61-6.51c-0.26-4.08,1.16-7.45,4.97-9.15c4.99-2.23,10.15-2.03,15.1,0.29
		c2.72,1.28,4.08,3.71,4.58,6.64c0.16,0.95-0.03,1.5-1.16,1.43c-1.1-0.06-2.22-0.06-3.32,0c-1.67,0.09-2.93,0.06-3.73-2.01
		c-0.89-2.3-6.73-2.59-8.37-0.69c-0.99,1.14-0.72,2.45,0.73,3.19c1.82,0.93,3.85,1.15,5.82,1.58c2.1,0.45,4.19,0.9,6.17,1.79
		c2.82,1.27,4.75,3.27,4.88,6.48c0.14,3.29-0.88,6.17-3.74,8.13c-4.82,3.29-14.4,3.17-19.17-0.18c-2.15-1.51-3.32-3.58-3.79-6.13
		c-0.2-1.06,0.01-1.6,1.23-1.49C32.89,252.21,33.81,252.14,34.72,252.14z"/>
	<path class="st5" d="M61.55,247.84c0-2.73-0.06-5.47,0.03-8.2c0.04-1.25-0.32-1.85-1.62-1.62c-1.85,0.33-2.68-0.36-2.33-2.28
		c0.07-0.38,0.06-0.79,0-1.17c-0.29-1.76,0.38-2.54,2.2-2.23c1.35,0.24,1.84-0.32,1.75-1.71c-0.11-1.62,0.02-3.26-0.04-4.88
		c-0.03-0.94,0.32-1.27,1.24-1.24c2.01,0.07,4.49-0.63,5.93,0.29c1.64,1.06,0.52,3.71,0.55,5.65c0.03,1.59,0.54,2,2.02,1.93
		c0.89-0.04,2.37-0.6,2.62,0.43c0.38,1.53,0.21,3.23,0.02,4.84c-0.07,0.63-1.02,0.33-1.57,0.35c-3.04,0.07-3.04,0.05-3.04,3.14
		c0,4.04-0.01,8.07,0,12.11c0.01,2.32,0.37,2.83,2.72,2.68c1.86-0.12,2.1,0.59,2.06,2.19c-0.1,3.74-0.03,3.74-3.87,3.74
		c-1.43,0-2.86,0.02-4.27-0.3c-2.96-0.67-4.34-2.25-4.4-5.33C61.51,253.44,61.55,250.64,61.55,247.84z"/>
	<path class="st7" d="M221.84,289.74c-3.69,2.47-7.58,2.58-10.61,0.36c-2.78-2.04-4.01-6.06-2.95-9.65
		c1.07-3.62,4.41-6.16,8.44-6.43c5.87-0.39,9.98,2.63,11,8.44c0.94,5.4,0.8,10.74-3.49,14.91c-4.52,4.39-13.11,3.03-15.36-2.29
		c-0.91-2.15-0.86-2.23,1.45-2.22c1.8,0.01,3.48-0.29,4.94,1.63c1.27,1.68,4.51,0.77,5.67-1.23
		C221.51,292.26,221.94,291.16,221.84,289.74z M221.86,283.02c0-2.34-1.7-3.97-4.11-3.95c-2.17,0.02-4.02,1.84-4.02,3.94
		c0,2.31,1.73,4,4.1,3.99C220.26,287,221.86,285.41,221.86,283.02z"/>
	<path class="st8" d="M153.77,286.87c-0.07-2.43,0.25-4.8,1.2-7.06c1.52-3.66,4.2-5.69,8.21-5.83c4.17-0.14,7.45,1.46,9.17,5.33
		c2.26,5.05,2.27,10.25-0.07,15.3c-1.82,3.94-5.15,5.47-9.4,5.24c-3.87-0.21-6.39-2.26-7.88-5.72
		C154.01,291.81,153.67,289.38,153.77,286.87z M167.89,287.1c0.08-1.76,0.02-3.52-0.52-5.21c-0.54-1.69-1.6-2.81-3.52-2.82
		c-1.91,0-3.06,1.06-3.53,2.78c-0.9,3.32-0.9,6.68-0.03,10.01c0.47,1.8,1.59,2.94,3.61,2.92c2.05-0.03,3.02-1.3,3.54-3.05
		C167.88,290.23,167.96,288.66,167.89,287.1z"/>
	<path class="st8" d="M195.72,286.89c0.07,2.88-0.38,5.48-1.64,7.9c-1.97,3.78-5.19,5.27-9.34,5.05c-3.78-0.2-6.4-2.13-7.79-5.55
		c-1.99-4.9-2-9.92,0.02-14.81c1.59-3.84,4.66-5.6,8.81-5.51c4.15,0.09,7.02,2.1,8.68,5.84
		C195.48,282.1,195.84,284.55,195.72,286.89z M189.79,286.9c0.01-1.56-0.07-3.12-0.45-4.65c-0.52-2.08-1.81-3.18-3.64-3.19
		c-1.85-0.01-3.16,1.03-3.66,3.15c-0.74,3.14-0.71,6.33,0.02,9.47c0.48,2.08,1.83,3.12,3.69,3.08c1.83-0.04,3.11-1.15,3.6-3.22
		C189.71,290.02,189.81,288.46,189.79,286.9z"/>
	<path class="st5" d="M192.31,236.93c0.7-0.97,1.32-1.93,2.04-2.8c1.63-1.97,3.83-2.53,6.29-2.42c0.82,0.04,1.18,0.37,1.13,1.19
		c-0.03,0.58,0,1.17-0.01,1.76c-0.02,1.49,0.45,3.25-0.19,4.41c-0.69,1.28-2.6,0.32-3.96,0.56c-3.12,0.54-5.05,2.74-5.08,6.16
		c-0.05,4.68-0.07,9.37,0.02,14.05c0.03,1.38-0.36,1.83-1.74,1.72c-1.55-0.12-3.12-0.06-4.68-0.01c-0.94,0.03-1.41-0.17-1.41-1.27
		c0.04-8.84,0.03-17.69,0-26.53c0-0.98,0.29-1.48,1.32-1.4c0.32,0.03,0.65,0,0.98,0c1.56,0.02,3.42-0.48,4.6,0.2
		C192.98,233.32,191.75,235.4,192.31,236.93z"/>
	<path class="st5" d="M112.72,236.53c1.93-2.79,4.06-4.78,7.53-4.88c1.3-0.04,2.08,0.14,1.94,1.75c-0.14,1.68-0.07,3.38-0.02,5.08
		c0.02,0.84-0.28,1.07-1.12,1.12c-6.97,0.48-8.03,1.65-8.03,8.74c0,3.84-0.03,7.68,0.02,11.52c0.02,1.19-0.2,1.81-1.59,1.7
		c-1.55-0.13-3.13-0.11-4.68,0c-1.25,0.08-1.51-0.41-1.51-1.56c0.04-8.66,0.04-17.32,0-25.98c-0.01-1.24,0.29-1.79,1.62-1.69
		c1.36,0.1,2.74,0.1,4.1,0c1.35-0.1,1.93,0.33,1.76,1.73C112.64,234.87,112.72,235.7,112.72,236.53z"/>
	<path class="st9" d="M264.91,289.46c-0.8,2.86-1.66,5.7-2.35,8.59c-0.29,1.22-0.91,1.46-2.03,1.44c-1.11-0.01-1.73-0.18-2.03-1.45
		c-0.65-2.8-1.53-5.56-2.78-8.27c0,2.69-0.12,5.39,0.04,8.07c0.11,1.78-0.87,1.64-2.02,1.63c-1.13-0.01-2.1,0.19-2.04-1.61
		c0.14-4.22,0.1-8.46,0.02-12.69c-0.03-1.32,0.42-1.62,1.68-1.63c4.51-0.01,4.51-0.05,5.6,4.38c0.42,1.68,0.87,3.36,1.73,5.09
		c0.61-2.33,1.36-4.64,1.79-7c0.36-1.98,1.22-2.6,3.24-2.49c3.5,0.2,3.51,0.05,3.51,3.65c0,3.51-0.12,7.03,0.05,10.54
		c0.09,1.8-0.78,1.72-2.06,1.78c-1.45,0.06-2.07-0.24-1.98-1.88c0.15-2.72,0.04-5.45,0.04-8.17
		C265.17,289.45,265.04,289.46,264.91,289.46z"/>
	<path class="st8" d="M154.02,126.57c2.34,0,4.68-0.03,7.02,0.02c0.83,0.02,1.69,0.16,2.48,0.4c3.07,0.93,3.8,3.22,1.66,5.61
		c-3.18,3.54-7.45,5.08-11.95,6.09c-2.1,0.47-4.24,0.54-6.4,0.5c-1.07-0.02-1.48-0.32-1.46-1.44c0.06-3.25,0.06-6.5,0-9.76
		c-0.02-1.09,0.29-1.49,1.42-1.45C149.21,126.62,151.61,126.57,154.02,126.57C154.02,126.57,154.02,126.57,154.02,126.57z"/>
	<path class="st2" d="M136.81,89.54c-2.35,0-4.69,0.04-7.03-0.02c-0.83-0.02-1.69-0.17-2.49-0.42c-2.98-0.93-3.71-3.16-1.61-5.49
		c3.22-3.59,7.55-5.2,12.12-6.2c2.1-0.46,4.25-0.55,6.41-0.47c0.97,0.04,1.38,0.28,1.36,1.34c-0.06,3.32-0.06,6.65,0,9.97
		c0.02,1.03-0.33,1.35-1.34,1.33c-2.47-0.06-4.95-0.02-7.43-0.02C136.81,89.55,136.81,89.55,136.81,89.54z"/>
	<path class="st0" d="M152.65,287.01c0,3.64-0.06,7.29,0.03,10.93c0.03,1.31-0.38,1.69-1.64,1.59c-1.61-0.13-3.71,0.48-4.7-0.33
		c-1.06-0.87-0.29-3.05-0.32-4.65c-0.06-2.93-0.07-5.86,0.01-8.78c0.03-1.2-0.2-1.86-1.57-1.64c-0.44,0.07-0.91,0.01-1.36,0.01
		c-3.08,0-3.02,0-3.05-3.12c-0.01-1.16,0.28-1.5,1.47-1.61c2.72-0.27,5.09-1.21,5.81-4.29c0.28-1.17,1.23-0.73,1.92-0.74
		c3.4-0.06,3.4-0.04,3.4,3.27C152.65,280.77,152.65,283.89,152.65,287.01z"/>
	<path class="st10" d="M238.83,291.51c0-2.15,0.04-4.3-0.02-6.44c-0.03-1.04,0.2-1.54,1.39-1.51c2.99,0.07,5.99,0.1,8.98-0.01
		c1.69-0.06,1.23,1.03,1.32,1.92c0.11,1.09-0.08,1.7-1.42,1.59c-1.55-0.13-3.12,0.03-4.68-0.05c-1.23-0.06-1.35,0.6-1.35,1.57
		c0,0.94,0.03,1.64,1.3,1.55c1.29-0.1,2.61,0.05,3.9-0.04c1.24-0.09,1.4,0.55,1.33,1.54c-0.06,0.87,0.29,1.91-1.25,1.81
		c-1.3-0.08-2.6,0.02-3.9-0.03c-0.96-0.03-1.48,0.25-1.37,1.32c0.06,0.64,0.01,1.3,0.01,1.95c0,2.91,0,2.86-2.93,2.8
		c-1.03-0.02-1.35-0.33-1.32-1.34C238.87,295.93,238.83,293.72,238.83,291.51z"/>
	<path class="st7" d="M201.83,292.73c3.44,0,3.44,0,3.44,3.46c0,3.32,0,3.32-3.38,3.32c-3.48,0-3.48,0-3.48-3.56
		C198.39,292.73,198.39,292.73,201.83,292.73z"/>
	<path class="st0" d="M252.34,108.66c0.27-0.12,0.28,0.08,0.29,0.25c0,0.05-0.06,0.1-0.09,0.15c-0.06-0.14-0.12-0.28-0.18-0.42
		C252.36,108.64,252.34,108.66,252.34,108.66z"/>
</g>
</svg>
